{"glyphs":{"0":{"ha":1018,"x_min":0,"x_max":0,"o":"m 510 -14 b 990 465 825 -14 990 179 b 510 944 990 750 825 944 b 28 465 193 944 28 750 b 510 -14 28 179 193 -14 z m 510 240 b 308 465 350 240 308 293 b 510 690 308 638 350 690 b 710 465 668 690 710 638 b 510 240 710 293 668 240 z "},"1":{"ha":565,"x_min":0,"x_max":0,"o":"m 524 0 l 524 931 l 281 931 b 49 815 229 836 150 815 l 14 815 l 14 639 l 263 639 l 263 0 z "},"2":{"ha":917,"x_min":0,"x_max":0,"o":"m 886 0 l 886 235 l 554 235 l 293 203 b 397 275 293 250 336 260 l 606 326 b 889 625 772 368 889 450 b 478 944 889 815 772 944 b 22 586 150 944 22 774 l 22 565 l 278 565 l 278 583 b 468 707 278 668 313 707 b 628 629 610 707 628 676 b 544 549 628 586 604 568 l 292 468 b 18 164 92 404 18 322 l 18 0 z "},"3":{"ha":956,"x_min":0,"x_max":0,"o":"m 489 -14 b 942 263 775 -14 942 79 b 708 485 942 404 847 469 l 708 503 b 897 694 832 517 897 586 b 499 944 897 863 757 944 b 28 606 182 944 28 813 l 28 604 l 306 604 l 306 608 b 474 694 306 678 331 694 b 638 635 613 694 638 679 b 569 582 638 600 621 582 l 313 582 l 313 368 l 589 368 b 676 307 650 368 676 353 b 476 236 676 250 635 236 b 306 322 311 236 306 253 l 306 347 l 28 347 l 28 325 b 489 -14 28 104 175 -14 z "},"4":{"ha":1001,"x_min":0,"x_max":0,"o":"m 863 0 l 863 168 l 988 168 l 988 403 l 863 403 l 863 931 l 560 931 l 14 344 l 14 168 l 601 168 l 601 0 z m 378 403 l 378 421 l 583 632 l 601 632 l 601 403 z "},"5":{"ha":1007,"x_min":0,"x_max":0,"o":"m 507 -14 b 965 331 832 -14 965 124 b 624 639 965 524 864 639 b 322 506 432 639 343 561 l 308 506 l 333 696 l 910 696 l 910 931 l 101 931 l 46 376 l 311 376 b 511 435 329 425 390 435 b 688 328 663 435 688 407 b 511 224 688 251 663 224 b 311 297 342 224 311 243 l 311 306 l 42 306 l 42 297 b 507 -14 42 78 199 -14 z "},"6":{"ha":997,"x_min":0,"x_max":0,"o":"m 528 -14 b 965 296 817 -14 965 107 b 610 575 965 490 840 575 b 324 461 453 575 365 522 l 306 461 l 306 511 b 501 694 306 674 363 694 b 651 625 607 694 651 689 l 651 613 l 943 613 l 943 625 b 501 944 943 817 776 944 b 25 458 231 944 25 804 b 528 -14 25 138 168 -14 z m 513 238 b 321 315 350 238 321 261 b 513 397 321 376 346 397 b 690 315 661 397 690 376 b 513 238 690 261 661 238 z "},"7":{"ha":849,"x_min":0,"x_max":0,"o":"m 467 0 b 849 721 467 335 599 475 l 849 931 l 14 931 l 14 696 l 583 696 l 583 678 b 164 0 419 571 164 407 z "},"8":{"ha":964,"x_min":0,"x_max":0,"o":"m 483 -14 b 943 257 760 -14 943 68 b 728 485 943 410 846 464 l 728 503 b 915 699 849 525 915 588 b 482 944 915 853 768 944 b 51 699 200 944 51 853 b 236 503 51 588 119 525 l 236 485 b 21 257 131 464 21 410 b 483 -14 21 68 203 -14 z m 482 565 b 313 629 343 565 313 585 b 482 694 313 679 343 694 b 656 629 626 694 656 679 b 482 565 656 585 626 565 z m 482 236 b 286 314 322 236 286 258 b 482 389 286 371 318 389 b 678 314 646 389 678 371 b 482 236 678 258 642 236 z "},"9":{"ha":997,"x_min":0,"x_max":0,"o":"m 499 -14 b 965 472 764 -14 965 126 b 463 944 965 793 822 944 b 25 635 174 944 25 824 b 381 356 25 440 150 356 b 667 469 538 356 625 408 l 685 469 l 685 419 b 499 236 685 257 631 236 b 349 306 393 236 349 242 l 349 318 l 57 318 l 57 306 b 499 -14 57 114 224 -14 z m 478 533 b 300 615 329 533 300 554 b 478 693 300 669 329 693 b 669 615 640 693 669 669 b 478 533 669 554 644 533 z "},"A":{"ha":1150,"x_min":0,"x_max":0,"o":"m 279 0 l 351 172 l 793 172 l 864 0 l 1164 0 l 761 931 l 388 931 l -14 0 z m 504 538 l 564 694 l 582 694 l 643 538 l 697 407 l 450 407 z "},"À":{"ha":1150,"x_min":0,"x_max":0,"o":"m 717 1014 l 532 1200 l 156 1200 l 436 1014 z m 279 0 l 351 172 l 793 172 l 864 0 l 1164 0 l 761 931 l 388 931 l -14 0 z m 504 538 l 564 694 l 582 694 l 643 538 l 697 407 l 450 407 z "},"Á":{"ha":1150,"x_min":0,"x_max":0,"o":"m 714 1014 l 994 1200 l 618 1200 l 433 1014 z m 279 0 l 351 172 l 793 172 l 864 0 l 1164 0 l 761 931 l 388 931 l -14 0 z m 504 538 l 564 694 l 582 694 l 643 538 l 697 407 l 450 407 z "},"Â":{"ha":1150,"x_min":0,"x_max":0,"o":"m 511 1014 l 567 1072 l 583 1072 l 638 1014 l 918 1014 l 732 1194 l 417 1194 l 232 1014 z m 279 0 l 351 172 l 793 172 l 864 0 l 1164 0 l 761 931 l 388 931 l -14 0 z m 504 538 l 564 694 l 582 694 l 643 538 l 697 407 l 450 407 z "},"Ã":{"ha":1150,"x_min":0,"x_max":0,"o":"m 463 989 l 463 1011 b 486 1036 463 1024 467 1036 b 538 1024 497 1036 514 1032 l 601 1003 b 728 976 642 989 685 976 b 861 1135 822 976 861 1043 l 861 1203 l 689 1203 l 689 1193 b 658 1158 689 1168 679 1158 b 603 1172 644 1158 626 1164 l 556 1189 b 433 1215 504 1207 464 1215 b 289 1058 310 1215 289 1131 l 289 989 z m 279 0 l 351 172 l 793 172 l 864 0 l 1164 0 l 761 931 l 388 931 l -14 0 z m 504 538 l 564 694 l 582 694 l 643 538 l 697 407 l 450 407 z "},"Ä":{"ha":1150,"x_min":0,"x_max":0,"o":"m 863 1014 l 863 1207 l 615 1207 l 615 1014 z m 535 1014 l 535 1207 l 288 1207 l 288 1014 z m 279 0 l 351 172 l 793 172 l 864 0 l 1164 0 l 761 931 l 388 931 l -14 0 z m 504 538 l 564 694 l 582 694 l 643 538 l 697 407 l 450 407 z "},"Å":{"ha":1150,"x_min":0,"x_max":0,"o":"m 279 0 l 351 172 l 793 172 l 864 0 l 1164 0 l 772 904 b 803 1011 792 933 803 969 b 574 1211 803 1133 710 1211 b 343 1011 436 1211 343 1133 b 375 901 343 969 354 932 l -14 0 z m 572 964 b 500 1011 511 964 500 976 b 572 1058 500 1046 511 1058 b 644 1011 633 1058 644 1046 b 572 964 644 976 633 964 z m 504 538 l 564 694 l 582 694 l 643 538 l 697 407 l 450 407 z "},"Ā":{"ha":1150,"x_min":0,"x_max":0,"o":"m 821 1015 l 821 1201 l 328 1201 l 328 1015 z m 279 0 l 351 172 l 793 172 l 864 0 l 1164 0 l 761 931 l 388 931 l -14 0 z m 504 538 l 564 694 l 582 694 l 643 538 l 697 407 l 450 407 z "},"Ă":{"ha":1150,"x_min":0,"x_max":0,"o":"m 575 1000 b 819 1194 721 1000 819 1082 l 819 1213 l 638 1213 l 638 1199 b 575 1156 638 1169 631 1156 b 513 1199 521 1156 513 1169 l 513 1213 l 331 1213 l 331 1194 b 575 1000 331 1082 429 1000 z m 279 0 l 351 172 l 793 172 l 864 0 l 1164 0 l 761 931 l 388 931 l -14 0 z m 504 538 l 564 694 l 582 694 l 643 538 l 697 407 l 450 407 z "},"Ą":{"ha":1150,"x_min":0,"x_max":0,"o":"m 279 0 l 351 172 l 793 172 l 864 0 l 996 0 l 964 -33 b 894 -161 928 -72 894 -110 b 1038 -260 894 -219 932 -260 l 1176 -260 l 1176 -107 l 1101 -107 b 1090 -99 1093 -107 1090 -104 b 1101 -78 1090 -93 1094 -86 l 1164 0 l 761 931 l 388 931 l -14 0 z m 504 538 l 564 694 l 582 694 l 643 538 l 697 407 l 450 407 z "},"B":{"ha":992,"x_min":0,"x_max":0,"o":"m 665 0 b 978 258 888 0 978 101 b 703 481 978 388 889 474 l 703 494 b 935 706 872 501 935 586 b 633 931 935 851 835 931 l 42 931 l 42 0 z m 301 696 l 599 696 b 674 636 653 696 674 679 b 606 578 674 593 658 578 l 301 578 z m 301 364 l 632 364 b 714 300 696 364 714 351 b 632 235 714 247 694 235 l 301 235 z "},"C":{"ha":1069,"x_min":0,"x_max":0,"o":"m 542 -14 b 1042 383 854 -14 1042 135 l 1042 407 l 750 407 l 750 383 b 546 236 750 278 700 236 b 306 465 357 236 306 281 b 546 694 306 650 357 694 b 750 547 700 694 750 653 l 750 524 l 1042 524 l 1042 547 b 542 944 1042 796 854 944 b 28 465 218 944 28 756 b 542 -14 28 175 218 -14 z "},"Ç":{"ha":1069,"x_min":0,"x_max":0,"o":"m 608 -335 b 769 -190 714 -335 769 -278 b 608 -50 769 -106 714 -50 l 589 -50 l 589 -12 b 1042 383 874 1 1042 147 l 1042 407 l 750 407 l 750 383 b 546 236 750 278 700 236 b 306 465 357 236 306 281 b 546 694 306 650 357 694 b 750 547 700 694 750 653 l 750 524 l 1042 524 l 1042 547 b 542 944 1042 796 854 944 b 28 465 218 944 28 756 b 457 -10 28 201 185 21 l 457 -182 l 613 -182 b 624 -192 621 -182 624 -185 b 613 -200 624 -197 621 -200 l 457 -200 l 457 -335 z "},"Ć":{"ha":1069,"x_min":0,"x_max":0,"o":"m 674 1014 l 954 1200 l 578 1200 l 393 1014 z m 542 -14 b 1042 383 854 -14 1042 135 l 1042 407 l 750 407 l 750 383 b 546 236 750 278 700 236 b 306 465 357 236 306 281 b 546 694 306 650 357 694 b 750 547 700 694 750 653 l 750 524 l 1042 524 l 1042 547 b 542 944 1042 796 854 944 b 28 465 218 944 28 756 b 542 -14 28 175 218 -14 z "},"Ċ":{"ha":1069,"x_min":0,"x_max":0,"o":"m 665 1014 l 665 1207 l 404 1207 l 404 1014 z m 542 -14 b 1042 383 854 -14 1042 135 l 1042 407 l 750 407 l 750 383 b 546 236 750 278 700 236 b 306 465 357 236 306 281 b 546 694 306 650 357 694 b 750 547 700 694 750 653 l 750 524 l 1042 524 l 1042 547 b 542 944 1042 796 854 944 b 28 465 218 944 28 756 b 542 -14 28 175 218 -14 z "},"Č":{"ha":1069,"x_min":0,"x_max":0,"o":"m 599 1194 l 543 1136 l 526 1136 l 472 1194 l 192 1194 l 378 1014 l 693 1014 l 878 1194 z m 542 -14 b 1042 383 854 -14 1042 135 l 1042 407 l 750 407 l 750 383 b 546 236 750 278 700 236 b 306 465 357 236 306 281 b 546 694 306 650 357 694 b 750 547 700 694 750 653 l 750 524 l 1042 524 l 1042 547 b 542 944 1042 796 854 944 b 28 465 218 944 28 756 b 542 -14 28 175 218 -14 z "},"D":{"ha":1057,"x_min":0,"x_max":0,"o":"m 528 0 b 1029 465 835 0 1029 171 b 528 931 1029 760 835 931 l 57 931 l 57 0 z m 528 696 b 750 465 693 696 750 675 b 528 235 750 256 693 235 l 318 235 l 318 696 z "},"Ď":{"ha":1057,"x_min":0,"x_max":0,"o":"m 607 1194 l 551 1136 l 535 1136 l 481 1194 l 200 1194 l 386 1014 l 701 1014 l 886 1194 z m 528 0 b 1029 465 835 0 1029 171 b 528 931 1029 760 835 931 l 57 931 l 57 0 z m 528 696 b 750 465 693 696 750 675 b 528 235 750 256 693 235 l 318 235 l 318 696 z "},"E":{"ha":900,"x_min":0,"x_max":0,"o":"m 868 0 l 868 235 l 303 235 l 303 351 l 847 351 l 847 585 l 303 585 l 303 696 l 868 696 l 868 931 l 42 931 l 42 0 z "},"È":{"ha":900,"x_min":0,"x_max":0,"o":"m 596 1014 l 411 1200 l 35 1200 l 315 1014 z m 868 0 l 868 235 l 303 235 l 303 351 l 847 351 l 847 585 l 303 585 l 303 696 l 868 696 l 868 931 l 42 931 l 42 0 z "},"É":{"ha":900,"x_min":0,"x_max":0,"o":"m 593 1014 l 874 1200 l 497 1200 l 313 1014 z m 868 0 l 868 235 l 303 235 l 303 351 l 847 351 l 847 585 l 303 585 l 303 696 l 868 696 l 868 931 l 42 931 l 42 0 z "},"Ê":{"ha":900,"x_min":0,"x_max":0,"o":"m 390 1014 l 446 1072 l 463 1072 l 517 1014 l 797 1014 l 611 1194 l 296 1194 l 111 1014 z m 868 0 l 868 235 l 303 235 l 303 351 l 847 351 l 847 585 l 303 585 l 303 696 l 868 696 l 868 931 l 42 931 l 42 0 z "},"Ë":{"ha":900,"x_min":0,"x_max":0,"o":"m 742 1014 l 742 1207 l 494 1207 l 494 1014 z m 414 1014 l 414 1207 l 167 1207 l 167 1014 z m 868 0 l 868 235 l 303 235 l 303 351 l 847 351 l 847 585 l 303 585 l 303 696 l 868 696 l 868 931 l 42 931 l 42 0 z "},"Ē":{"ha":900,"x_min":0,"x_max":0,"o":"m 700 1015 l 700 1201 l 207 1201 l 207 1015 z m 868 0 l 868 235 l 303 235 l 303 351 l 847 351 l 847 585 l 303 585 l 303 696 l 868 696 l 868 931 l 42 931 l 42 0 z "},"Ĕ":{"ha":900,"x_min":0,"x_max":0,"o":"m 454 1000 b 699 1194 600 1000 699 1082 l 699 1213 l 517 1213 l 517 1199 b 454 1156 517 1169 510 1156 b 392 1199 400 1156 392 1169 l 392 1213 l 210 1213 l 210 1194 b 454 1000 210 1082 308 1000 z m 868 0 l 868 235 l 303 235 l 303 351 l 847 351 l 847 585 l 303 585 l 303 696 l 868 696 l 868 931 l 42 931 l 42 0 z "},"Ė":{"ha":900,"x_min":0,"x_max":0,"o":"m 585 1014 l 585 1207 l 324 1207 l 324 1014 z m 868 0 l 868 235 l 303 235 l 303 351 l 847 351 l 847 585 l 303 585 l 303 696 l 868 696 l 868 931 l 42 931 l 42 0 z "},"Ę":{"ha":900,"x_min":0,"x_max":0,"o":"m 847 351 l 847 585 l 303 585 l 303 696 l 868 696 l 868 931 l 42 931 l 42 0 l 700 0 l 668 -33 b 599 -161 632 -72 599 -110 b 742 -260 599 -219 636 -260 l 881 -260 l 881 -107 l 806 -107 b 794 -99 797 -107 794 -104 b 806 -78 794 -93 799 -86 l 868 0 l 868 235 l 303 235 l 303 351 z "},"Ě":{"ha":900,"x_min":0,"x_max":0,"o":"m 518 1194 l 463 1136 l 446 1136 l 392 1194 l 111 1194 l 297 1014 l 613 1014 l 797 1194 z m 868 0 l 868 235 l 303 235 l 303 351 l 847 351 l 847 585 l 303 585 l 303 696 l 868 696 l 868 931 l 42 931 l 42 0 z "},"F":{"ha":900,"x_min":0,"x_max":0,"o":"m 303 0 l 303 324 l 853 324 l 853 557 l 303 557 l 303 696 l 874 696 l 874 931 l 42 931 l 42 0 z "},"G":{"ha":1107,"x_min":0,"x_max":0,"o":"m 492 -14 b 814 199 710 -14 789 90 l 828 199 l 828 0 l 1071 0 l 1071 508 l 521 508 l 521 317 l 807 317 b 546 236 794 246 739 236 b 306 465 357 236 306 281 b 560 694 306 650 360 694 b 778 575 725 694 778 661 l 778 565 l 1069 565 l 1069 575 b 567 944 1069 806 882 944 b 28 465 228 944 28 756 b 492 -14 28 175 199 -14 z "},"Ĝ":{"ha":1107,"x_min":0,"x_max":0,"o":"m 501 1014 l 557 1072 l 574 1072 l 628 1014 l 908 1014 l 722 1194 l 407 1194 l 222 1014 z m 492 -14 b 814 199 710 -14 789 90 l 828 199 l 828 0 l 1071 0 l 1071 508 l 521 508 l 521 317 l 807 317 b 546 236 794 246 739 236 b 306 465 357 236 306 281 b 560 694 306 650 360 694 b 778 575 725 694 778 661 l 778 565 l 1069 565 l 1069 575 b 567 944 1069 806 882 944 b 28 465 228 944 28 756 b 492 -14 28 175 199 -14 z "},"Ğ":{"ha":1107,"x_min":0,"x_max":0,"o":"m 565 1000 b 810 1194 711 1000 810 1082 l 810 1213 l 628 1213 l 628 1199 b 565 1156 628 1169 621 1156 b 503 1199 511 1156 503 1169 l 503 1213 l 321 1213 l 321 1194 b 565 1000 321 1082 419 1000 z m 492 -14 b 814 199 710 -14 789 90 l 828 199 l 828 0 l 1071 0 l 1071 508 l 521 508 l 521 317 l 807 317 b 546 236 794 246 739 236 b 306 465 357 236 306 281 b 560 694 306 650 360 694 b 778 575 725 694 778 661 l 778 565 l 1069 565 l 1069 575 b 567 944 1069 806 882 944 b 28 465 228 944 28 756 b 492 -14 28 175 199 -14 z "},"Ġ":{"ha":1107,"x_min":0,"x_max":0,"o":"m 696 1014 l 696 1207 l 435 1207 l 435 1014 z m 492 -14 b 814 199 710 -14 789 90 l 828 199 l 828 0 l 1071 0 l 1071 508 l 521 508 l 521 317 l 807 317 b 546 236 794 246 739 236 b 306 465 357 236 306 281 b 560 694 306 650 360 694 b 778 575 725 694 778 661 l 778 565 l 1069 565 l 1069 575 b 567 944 1069 806 882 944 b 28 465 228 944 28 756 b 492 -14 28 175 199 -14 z "},"Ģ":{"ha":1107,"x_min":0,"x_max":0,"o":"m 492 -14 b 814 199 710 -14 789 90 l 828 199 l 828 0 l 1071 0 l 1071 508 l 521 508 l 521 317 l 807 317 b 546 236 794 246 739 236 b 306 465 357 236 306 281 b 560 694 306 650 360 694 b 778 575 725 694 778 661 l 778 565 l 1069 565 l 1069 575 b 567 944 1069 806 882 944 b 28 465 228 944 28 756 b 492 -14 28 175 199 -14 z m 529 -278 l 758 -97 l 379 -97 l 224 -278 z "},"H":{"ha":1039,"x_min":0,"x_max":0,"o":"m 303 0 l 303 350 l 736 350 l 736 0 l 997 0 l 997 931 l 736 931 l 736 585 l 303 585 l 303 931 l 42 931 l 42 0 z "},"I":{"ha":344,"x_min":0,"x_max":0,"o":"m 303 0 l 303 931 l 42 931 l 42 0 z "},"Ì":{"ha":344,"x_min":0,"x_max":0,"o":"m 314 1014 l 129 1200 l -247 1200 l 33 1014 z m 303 0 l 303 931 l 42 931 l 42 0 z "},"Í":{"ha":344,"x_min":0,"x_max":0,"o":"m 311 1014 l 592 1200 l 215 1200 l 31 1014 z m 303 0 l 303 931 l 42 931 l 42 0 z "},"Î":{"ha":344,"x_min":0,"x_max":0,"o":"m 108 1014 l 164 1072 l 181 1072 l 235 1014 l 515 1014 l 329 1194 l 14 1194 l -171 1014 z m 303 0 l 303 931 l 42 931 l 42 0 z "},"Ï":{"ha":344,"x_min":0,"x_max":0,"o":"m 460 1014 l 460 1207 l 213 1207 l 213 1014 z m 132 1014 l 132 1207 l -115 1207 l -115 1014 z m 303 0 l 303 931 l 42 931 l 42 0 z "},"Ĩ":{"ha":344,"x_min":0,"x_max":0,"o":"m 60 989 l 60 1011 b 83 1036 60 1024 64 1036 b 135 1024 94 1036 111 1032 l 199 1003 b 325 976 239 989 282 976 b 458 1135 419 976 458 1043 l 458 1203 l 286 1203 l 286 1193 b 256 1158 286 1168 276 1158 b 200 1172 242 1158 224 1164 l 153 1189 b 31 1215 101 1207 61 1215 b -114 1058 -93 1215 -114 1131 l -114 989 z m 303 0 l 303 931 l 42 931 l 42 0 z "},"Ī":{"ha":344,"x_min":0,"x_max":0,"o":"m 418 1015 l 418 1201 l -75 1201 l -75 1015 z m 303 0 l 303 931 l 42 931 l 42 0 z "},"Ĭ":{"ha":344,"x_min":0,"x_max":0,"o":"m 172 1000 b 417 1194 318 1000 417 1082 l 417 1213 l 235 1213 l 235 1199 b 172 1156 235 1169 228 1156 b 110 1199 118 1156 110 1169 l 110 1213 l -72 1213 l -72 1194 b 172 1000 -72 1082 26 1000 z m 303 0 l 303 931 l 42 931 l 42 0 z "},"Į":{"ha":344,"x_min":0,"x_max":0,"o":"m 315 -260 l 315 -107 l 240 -107 b 229 -99 232 -107 229 -104 b 240 -78 229 -93 233 -86 l 303 0 l 303 931 l 42 931 l 42 0 l 135 0 l 103 -33 b 33 -161 67 -72 33 -110 b 176 -260 33 -219 71 -260 z "},"İ":{"ha":344,"x_min":0,"x_max":0,"o":"m 303 1014 l 303 1207 l 42 1207 l 42 1014 z m 303 0 l 303 931 l 42 931 l 42 0 z "},"J":{"ha":922,"x_min":0,"x_max":0,"o":"m 449 -14 b 886 385 768 -14 886 125 l 886 931 l 608 931 l 608 388 b 449 239 608 272 597 239 b 292 401 299 239 292 275 l 292 435 l 14 435 l 14 399 b 449 -14 14 129 131 -14 z "},"Ĵ":{"ha":922,"x_min":0,"x_max":0,"o":"m 683 1014 l 739 1072 l 756 1072 l 810 1014 l 1090 1014 l 904 1194 l 589 1194 l 404 1014 z m 449 -14 b 886 385 768 -14 886 125 l 886 931 l 608 931 l 608 388 b 449 239 608 272 597 239 b 292 401 299 239 292 275 l 292 435 l 14 435 l 14 399 b 449 -14 14 129 131 -14 z "},"K":{"ha":1015,"x_min":0,"x_max":0,"o":"m 303 0 l 303 331 l 493 331 l 710 0 l 1022 0 l 707 474 l 1029 931 l 717 931 l 490 585 l 303 585 l 303 931 l 42 931 l 42 0 z "},"Ķ":{"ha":1015,"x_min":0,"x_max":0,"o":"m 303 0 l 303 331 l 493 331 l 710 0 l 1022 0 l 707 474 l 1029 931 l 717 931 l 490 585 l 303 585 l 303 931 l 42 931 l 42 0 z m 496 -278 l 725 -97 l 346 -97 l 190 -278 z "},"L":{"ha":868,"x_min":0,"x_max":0,"o":"m 840 0 l 840 235 l 303 235 l 303 931 l 42 931 l 42 0 z "},"Ĺ":{"ha":868,"x_min":0,"x_max":0,"o":"m 322 1014 l 603 1200 l 226 1200 l 42 1014 z m 840 0 l 840 235 l 303 235 l 303 931 l 42 931 l 42 0 z "},"Ļ":{"ha":868,"x_min":0,"x_max":0,"o":"m 840 0 l 840 235 l 303 235 l 303 931 l 42 931 l 42 0 z m 425 -278 l 654 -97 l 275 -97 l 119 -278 z "},"Ľ":{"ha":868,"x_min":0,"x_max":0,"o":"m 840 0 l 840 235 l 303 235 l 303 931 l 42 931 l 42 0 z m 558 419 b 789 646 706 419 789 493 l 789 931 l 450 931 l 450 664 l 599 664 l 599 643 b 550 593 599 601 583 593 l 464 593 l 464 419 z "},"M":{"ha":1322,"x_min":0,"x_max":0,"o":"m 303 0 l 303 385 l 293 540 l 311 540 l 364 385 l 503 56 l 819 56 l 958 385 l 1011 540 l 1029 540 l 1019 385 l 1019 0 l 1281 0 l 1281 931 l 926 931 l 764 544 l 676 304 l 658 304 l 567 544 l 396 931 l 42 931 l 42 0 z "},"N":{"ha":1022,"x_min":0,"x_max":0,"o":"m 303 0 l 303 364 l 292 542 l 310 542 l 428 358 l 703 0 l 981 0 l 981 931 l 719 931 l 719 571 l 732 368 l 714 368 l 578 582 l 319 931 l 42 931 l 42 0 z "},"Ñ":{"ha":1022,"x_min":0,"x_max":0,"o":"m 399 989 l 399 1011 b 422 1036 399 1024 403 1036 b 474 1024 433 1036 450 1032 l 538 1003 b 664 976 578 989 621 976 b 797 1135 758 976 797 1043 l 797 1203 l 625 1203 l 625 1193 b 594 1158 625 1168 615 1158 b 539 1172 581 1158 563 1164 l 492 1189 b 369 1215 440 1207 400 1215 b 225 1058 246 1215 225 1131 l 225 989 z m 303 0 l 303 364 l 292 542 l 310 542 l 428 358 l 703 0 l 981 0 l 981 931 l 719 931 l 719 571 l 732 368 l 714 368 l 578 582 l 319 931 l 42 931 l 42 0 z "},"Ń":{"ha":1022,"x_min":0,"x_max":0,"o":"m 650 1014 l 931 1200 l 554 1200 l 369 1014 z m 303 0 l 303 364 l 292 542 l 310 542 l 428 358 l 703 0 l 981 0 l 981 931 l 719 931 l 719 571 l 732 368 l 714 368 l 578 582 l 319 931 l 42 931 l 42 0 z "},"Ņ":{"ha":1022,"x_min":0,"x_max":0,"o":"m 303 0 l 303 364 l 292 542 l 310 542 l 428 358 l 703 0 l 981 0 l 981 931 l 719 931 l 719 571 l 732 368 l 714 368 l 578 582 l 319 931 l 42 931 l 42 0 z m 496 -278 l 725 -97 l 346 -97 l 190 -278 z "},"Ň":{"ha":1022,"x_min":0,"x_max":0,"o":"m 575 1194 l 519 1136 l 503 1136 l 449 1194 l 168 1194 l 354 1014 l 669 1014 l 854 1194 z m 303 0 l 303 364 l 292 542 l 310 542 l 428 358 l 703 0 l 981 0 l 981 931 l 719 931 l 719 571 l 732 368 l 714 368 l 578 582 l 319 931 l 42 931 l 42 0 z "},"O":{"ha":1092,"x_min":0,"x_max":0,"o":"m 543 -14 b 1064 465 875 -14 1064 175 b 543 944 1064 756 875 944 b 28 465 219 944 28 756 b 543 -14 28 175 219 -14 z m 543 236 b 306 465 354 236 306 281 b 543 694 306 650 354 694 b 786 465 732 694 786 650 b 543 236 786 281 732 236 z "},"Ò":{"ha":1092,"x_min":0,"x_max":0,"o":"m 688 1014 l 503 1200 l 126 1200 l 407 1014 z m 543 -14 b 1064 465 875 -14 1064 175 b 543 944 1064 756 875 944 b 28 465 219 944 28 756 b 543 -14 28 175 219 -14 z m 543 236 b 306 465 354 236 306 281 b 543 694 306 650 354 694 b 786 465 732 694 786 650 b 543 236 786 281 732 236 z "},"Ó":{"ha":1092,"x_min":0,"x_max":0,"o":"m 685 1014 l 965 1200 l 589 1200 l 404 1014 z m 543 -14 b 1064 465 875 -14 1064 175 b 543 944 1064 756 875 944 b 28 465 219 944 28 756 b 543 -14 28 175 219 -14 z m 543 236 b 306 465 354 236 306 281 b 543 694 306 650 354 694 b 786 465 732 694 786 650 b 543 236 786 281 732 236 z "},"Ô":{"ha":1092,"x_min":0,"x_max":0,"o":"m 482 1014 l 538 1072 l 554 1072 l 608 1014 l 889 1014 l 703 1194 l 388 1194 l 203 1014 z m 543 -14 b 1064 465 875 -14 1064 175 b 543 944 1064 756 875 944 b 28 465 219 944 28 756 b 543 -14 28 175 219 -14 z m 543 236 b 306 465 354 236 306 281 b 543 694 306 650 354 694 b 786 465 732 694 786 650 b 543 236 786 281 732 236 z "},"Õ":{"ha":1092,"x_min":0,"x_max":0,"o":"m 433 989 l 433 1011 b 457 1036 433 1024 438 1036 b 508 1024 468 1036 485 1032 l 572 1003 b 699 976 613 989 656 976 b 832 1135 793 976 832 1043 l 832 1203 l 660 1203 l 660 1193 b 629 1158 660 1168 650 1158 b 574 1172 615 1158 597 1164 l 526 1189 b 404 1215 475 1207 435 1215 b 260 1058 281 1215 260 1131 l 260 989 z m 543 -14 b 1064 465 875 -14 1064 175 b 543 944 1064 756 875 944 b 28 465 219 944 28 756 b 543 -14 28 175 219 -14 z m 543 236 b 306 465 354 236 306 281 b 543 694 306 650 354 694 b 786 465 732 694 786 650 b 543 236 786 281 732 236 z "},"Ö":{"ha":1092,"x_min":0,"x_max":0,"o":"m 833 1014 l 833 1207 l 586 1207 l 586 1014 z m 506 1014 l 506 1207 l 258 1207 l 258 1014 z m 543 -14 b 1064 465 875 -14 1064 175 b 543 944 1064 756 875 944 b 28 465 219 944 28 756 b 543 -14 28 175 219 -14 z m 543 236 b 306 465 354 236 306 281 b 543 694 306 650 354 694 b 786 465 732 694 786 650 b 543 236 786 281 732 236 z "},"Ō":{"ha":1092,"x_min":0,"x_max":0,"o":"m 792 1015 l 792 1201 l 299 1201 l 299 1015 z m 543 -14 b 1064 465 875 -14 1064 175 b 543 944 1064 756 875 944 b 28 465 219 944 28 756 b 543 -14 28 175 219 -14 z m 543 236 b 306 465 354 236 306 281 b 543 694 306 650 354 694 b 786 465 732 694 786 650 b 543 236 786 281 732 236 z "},"Ŏ":{"ha":1092,"x_min":0,"x_max":0,"o":"m 546 1000 b 790 1194 692 1000 790 1082 l 790 1213 l 608 1213 l 608 1199 b 546 1156 608 1169 601 1156 b 483 1199 492 1156 483 1169 l 483 1213 l 301 1213 l 301 1194 b 546 1000 301 1082 400 1000 z m 543 -14 b 1064 465 875 -14 1064 175 b 543 944 1064 756 875 944 b 28 465 219 944 28 756 b 543 -14 28 175 219 -14 z m 543 236 b 306 465 354 236 306 281 b 543 694 306 650 354 694 b 786 465 732 694 786 650 b 543 236 786 281 732 236 z "},"Ő":{"ha":1092,"x_min":0,"x_max":0,"o":"m 843 1014 l 1032 1200 l 690 1200 l 579 1014 z m 438 1014 l 626 1200 l 283 1200 l 174 1014 z m 543 -14 b 1064 465 875 -14 1064 175 b 543 944 1064 756 875 944 b 28 465 219 944 28 756 b 543 -14 28 175 219 -14 z m 543 236 b 306 465 354 236 306 281 b 543 694 306 650 354 694 b 786 465 732 694 786 650 b 543 236 786 281 732 236 z "},"P":{"ha":931,"x_min":0,"x_max":0,"o":"m 303 0 l 303 235 l 557 235 b 917 583 778 235 917 363 b 557 931 917 804 778 931 l 42 931 l 42 0 z m 528 696 b 657 583 619 696 657 678 b 528 469 657 488 619 469 l 303 469 l 303 696 z "},"Q":{"ha":1092,"x_min":0,"x_max":0,"o":"m 975 -196 l 772 24 b 1064 465 961 92 1064 250 b 543 944 1064 756 875 944 b 28 465 219 944 28 756 b 481 -11 28 194 194 11 l 632 -196 z m 543 236 b 306 465 354 236 306 281 b 543 694 306 650 354 694 b 786 465 732 694 786 650 b 543 236 786 281 732 236 z "},"R":{"ha":985,"x_min":0,"x_max":0,"o":"m 303 0 l 303 317 l 410 317 b 572 228 511 317 539 297 l 683 0 l 985 0 l 869 233 b 708 375 835 304 804 350 l 708 389 b 960 646 886 411 960 499 b 585 931 960 828 831 931 l 42 931 l 42 0 z m 303 696 l 582 696 b 686 604 658 696 686 678 b 582 511 686 525 658 511 l 303 511 z "},"Ŕ":{"ha":985,"x_min":0,"x_max":0,"o":"m 624 1014 l 904 1200 l 528 1200 l 343 1014 z m 303 0 l 303 317 l 410 317 b 572 228 511 317 539 297 l 683 0 l 985 0 l 869 233 b 708 375 835 304 804 350 l 708 389 b 960 646 886 411 960 499 b 585 931 960 828 831 931 l 42 931 l 42 0 z m 303 696 l 582 696 b 686 604 658 696 686 678 b 582 511 686 525 658 511 l 303 511 z "},"Ŗ":{"ha":985,"x_min":0,"x_max":0,"o":"m 303 0 l 303 317 l 410 317 b 572 228 511 317 539 297 l 683 0 l 985 0 l 869 233 b 708 375 835 304 804 350 l 708 389 b 960 646 886 411 960 499 b 585 931 960 828 831 931 l 42 931 l 42 0 z m 303 696 l 582 696 b 686 604 658 696 686 678 b 582 511 686 525 658 511 l 303 511 z m 469 -278 l 699 -97 l 319 -97 l 164 -278 z "},"Ř":{"ha":985,"x_min":0,"x_max":0,"o":"m 549 1194 l 493 1136 l 476 1136 l 422 1194 l 142 1194 l 328 1014 l 643 1014 l 828 1194 z m 303 0 l 303 317 l 410 317 b 572 228 511 317 539 297 l 683 0 l 985 0 l 869 233 b 708 375 835 304 804 350 l 708 389 b 960 646 886 411 960 499 b 585 931 960 828 831 931 l 42 931 l 42 0 z m 303 696 l 582 696 b 686 604 658 696 686 678 b 582 511 686 525 658 511 l 303 511 z "},"S":{"ha":950,"x_min":0,"x_max":0,"o":"m 493 -14 b 929 288 807 -14 929 128 b 640 557 929 407 868 524 l 349 600 b 282 650 299 607 282 621 b 444 708 282 690 311 708 b 649 619 619 708 649 686 l 649 599 l 910 599 l 910 607 b 472 944 910 815 768 944 b 21 640 136 944 21 789 b 282 374 21 490 108 397 l 574 335 b 668 278 650 325 668 311 b 493 224 668 236 651 224 b 296 303 318 224 296 240 l 296 332 l 35 332 l 35 324 b 493 -14 35 88 208 -14 z "},"Ś":{"ha":950,"x_min":0,"x_max":0,"o":"m 614 1014 l 894 1200 l 518 1200 l 333 1014 z m 493 -14 b 929 288 807 -14 929 128 b 640 557 929 407 868 524 l 349 600 b 282 650 299 607 282 621 b 444 708 282 690 311 708 b 649 619 619 708 649 686 l 649 599 l 910 599 l 910 607 b 472 944 910 815 768 944 b 21 640 136 944 21 789 b 282 374 21 490 108 397 l 574 335 b 668 278 650 325 668 311 b 493 224 668 236 651 224 b 296 303 318 224 296 240 l 296 332 l 35 332 l 35 324 b 493 -14 35 88 208 -14 z "},"Ŝ":{"ha":950,"x_min":0,"x_max":0,"o":"m 411 1014 l 467 1072 l 483 1072 l 538 1014 l 818 1014 l 632 1194 l 317 1194 l 132 1014 z m 493 -14 b 929 288 807 -14 929 128 b 640 557 929 407 868 524 l 349 600 b 282 650 299 607 282 621 b 444 708 282 690 311 708 b 649 619 619 708 649 686 l 649 599 l 910 599 l 910 607 b 472 944 910 815 768 944 b 21 640 136 944 21 789 b 282 374 21 490 108 397 l 574 335 b 668 278 650 325 668 311 b 493 224 668 236 651 224 b 296 303 318 224 296 240 l 296 332 l 35 332 l 35 324 b 493 -14 35 88 208 -14 z "},"Ş":{"ha":950,"x_min":0,"x_max":0,"o":"m 493 -14 b 929 288 807 -14 929 128 b 640 557 929 407 868 524 l 349 600 b 282 650 299 607 282 621 b 444 708 282 690 311 708 b 649 619 619 708 649 686 l 649 599 l 910 599 l 910 607 b 472 944 910 815 768 944 b 21 640 136 944 21 789 b 282 374 21 490 108 397 l 574 335 b 668 278 650 325 668 311 b 493 224 668 236 651 224 b 296 303 318 224 296 240 l 296 332 l 35 332 l 35 324 b 357 -4 35 128 154 25 l 357 -182 l 513 -182 b 524 -192 521 -182 524 -185 b 513 -200 524 -197 521 -200 l 357 -200 l 357 -335 l 508 -335 b 669 -190 614 -335 669 -278 b 508 -50 669 -106 614 -50 l 489 -50 l 489 -14 z "},"Š":{"ha":950,"x_min":0,"x_max":0,"o":"m 539 1194 l 483 1136 l 467 1136 l 413 1194 l 132 1194 l 318 1014 l 633 1014 l 818 1194 z m 493 -14 b 929 288 807 -14 929 128 b 640 557 929 407 868 524 l 349 600 b 282 650 299 607 282 621 b 444 708 282 690 311 708 b 649 619 619 708 649 686 l 649 599 l 910 599 l 910 607 b 472 944 910 815 768 944 b 21 640 136 944 21 789 b 282 374 21 490 108 397 l 574 335 b 668 278 650 325 668 311 b 493 224 668 236 651 224 b 296 303 318 224 296 240 l 296 332 l 35 332 l 35 324 b 493 -14 35 88 208 -14 z "},"Ș":{"ha":950,"x_min":0,"x_max":0,"o":"m 493 -14 b 929 288 807 -14 929 128 b 640 557 929 407 868 524 l 349 600 b 282 650 299 607 282 621 b 444 708 282 690 311 708 b 649 619 619 708 649 686 l 649 599 l 910 599 l 910 607 b 472 944 910 815 768 944 b 21 640 136 944 21 789 b 282 374 21 490 108 397 l 574 335 b 668 278 650 325 668 311 b 493 224 668 236 651 224 b 296 303 318 224 296 240 l 296 332 l 35 332 l 35 324 b 493 -14 35 88 208 -14 z m 479 -278 l 708 -97 l 329 -97 l 174 -278 z "},"T":{"ha":960,"x_min":0,"x_max":0,"o":"m 611 0 l 611 696 l 939 696 l 939 931 l 21 931 l 21 696 l 350 696 l 350 0 z "},"Ț":{"ha":960,"x_min":0,"x_max":0,"o":"m 611 0 l 611 696 l 939 696 l 939 931 l 21 931 l 21 696 l 350 696 l 350 0 z m 518 -278 l 747 -97 l 368 -97 l 213 -278 z "},"Ť":{"ha":960,"x_min":0,"x_max":0,"o":"m 544 1194 l 489 1136 l 472 1136 l 418 1194 l 138 1194 l 324 1014 l 639 1014 l 824 1194 z m 611 0 l 611 696 l 939 696 l 939 931 l 21 931 l 21 696 l 350 696 l 350 0 z "},"U":{"ha":1022,"x_min":0,"x_max":0,"o":"m 511 -14 b 986 390 836 -14 986 143 l 986 931 l 725 931 l 725 411 b 511 239 725 279 688 239 b 297 411 335 239 297 279 l 297 931 l 36 931 l 36 390 b 511 -14 36 143 186 -14 z "},"Ù":{"ha":1022,"x_min":0,"x_max":0,"o":"m 653 1014 l 468 1200 l 92 1200 l 372 1014 z m 511 -14 b 986 390 836 -14 986 143 l 986 931 l 725 931 l 725 411 b 511 239 725 279 688 239 b 297 411 335 239 297 279 l 297 931 l 36 931 l 36 390 b 511 -14 36 143 186 -14 z "},"Ú":{"ha":1022,"x_min":0,"x_max":0,"o":"m 650 1014 l 931 1200 l 554 1200 l 369 1014 z m 511 -14 b 986 390 836 -14 986 143 l 986 931 l 725 931 l 725 411 b 511 239 725 279 688 239 b 297 411 335 239 297 279 l 297 931 l 36 931 l 36 390 b 511 -14 36 143 186 -14 z "},"Û":{"ha":1022,"x_min":0,"x_max":0,"o":"m 447 1014 l 503 1072 l 519 1072 l 574 1014 l 854 1014 l 668 1194 l 353 1194 l 168 1014 z m 511 -14 b 986 390 836 -14 986 143 l 986 931 l 725 931 l 725 411 b 511 239 725 279 688 239 b 297 411 335 239 297 279 l 297 931 l 36 931 l 36 390 b 511 -14 36 143 186 -14 z "},"Ü":{"ha":1022,"x_min":0,"x_max":0,"o":"m 799 1014 l 799 1207 l 551 1207 l 551 1014 z m 471 1014 l 471 1207 l 224 1207 l 224 1014 z m 511 -14 b 986 390 836 -14 986 143 l 986 931 l 725 931 l 725 411 b 511 239 725 279 688 239 b 297 411 335 239 297 279 l 297 931 l 36 931 l 36 390 b 511 -14 36 143 186 -14 z "},"Ũ":{"ha":1022,"x_min":0,"x_max":0,"o":"m 399 989 l 399 1011 b 422 1036 399 1024 403 1036 b 474 1024 433 1036 450 1032 l 538 1003 b 664 976 578 989 621 976 b 797 1135 758 976 797 1043 l 797 1203 l 625 1203 l 625 1193 b 594 1158 625 1168 615 1158 b 539 1172 581 1158 563 1164 l 492 1189 b 369 1215 440 1207 400 1215 b 225 1058 246 1215 225 1131 l 225 989 z m 511 -14 b 986 390 836 -14 986 143 l 986 931 l 725 931 l 725 411 b 511 239 725 279 688 239 b 297 411 335 239 297 279 l 297 931 l 36 931 l 36 390 b 511 -14 36 143 186 -14 z "},"Ū":{"ha":1022,"x_min":0,"x_max":0,"o":"m 757 1015 l 757 1201 l 264 1201 l 264 1015 z m 511 -14 b 986 390 836 -14 986 143 l 986 931 l 725 931 l 725 411 b 511 239 725 279 688 239 b 297 411 335 239 297 279 l 297 931 l 36 931 l 36 390 b 511 -14 36 143 186 -14 z "},"Ŭ":{"ha":1022,"x_min":0,"x_max":0,"o":"m 511 1000 b 756 1194 657 1000 756 1082 l 756 1213 l 574 1213 l 574 1199 b 511 1156 574 1169 567 1156 b 449 1199 457 1156 449 1169 l 449 1213 l 267 1213 l 267 1194 b 511 1000 267 1082 365 1000 z m 511 -14 b 986 390 836 -14 986 143 l 986 931 l 725 931 l 725 411 b 511 239 725 279 688 239 b 297 411 335 239 297 279 l 297 931 l 36 931 l 36 390 b 511 -14 36 143 186 -14 z "},"Ů":{"ha":1022,"x_min":0,"x_max":0,"o":"m 511 938 b 690 1086 617 938 690 997 b 511 1235 690 1175 617 1235 b 332 1086 406 1235 332 1175 b 511 938 332 997 406 938 z m 511 1054 b 463 1086 475 1054 463 1061 b 511 1118 463 1111 475 1118 b 560 1086 549 1118 560 1111 b 511 1054 560 1061 549 1054 z m 511 -14 b 986 390 836 -14 986 143 l 986 931 l 725 931 l 725 411 b 511 239 725 279 688 239 b 297 411 335 239 297 279 l 297 931 l 36 931 l 36 390 b 511 -14 36 143 186 -14 z "},"Ű":{"ha":1022,"x_min":0,"x_max":0,"o":"m 808 1014 l 997 1200 l 656 1200 l 544 1014 z m 403 1014 l 592 1200 l 249 1200 l 139 1014 z m 511 -14 b 986 390 836 -14 986 143 l 986 931 l 725 931 l 725 411 b 511 239 725 279 688 239 b 297 411 335 239 297 279 l 297 931 l 36 931 l 36 390 b 511 -14 36 143 186 -14 z "},"Ų":{"ha":1022,"x_min":0,"x_max":0,"o":"m 665 -260 l 665 -107 l 590 -107 b 579 -99 582 -107 579 -104 b 590 -78 579 -93 583 -86 l 650 -3 b 986 390 879 38 986 182 l 986 931 l 725 931 l 725 411 b 511 239 725 279 688 239 b 297 411 335 239 297 279 l 297 931 l 36 931 l 36 390 b 472 -12 36 153 174 -1 l 453 -33 b 383 -161 417 -72 383 -110 b 526 -260 383 -219 421 -260 z "},"V":{"ha":1094,"x_min":0,"x_max":0,"o":"m 735 0 l 1108 931 l 794 931 l 560 264 l 542 264 l 301 931 l -14 931 l 360 0 z "},"W":{"ha":1560,"x_min":0,"x_max":0,"o":"m 594 0 l 706 399 l 771 690 l 789 690 l 850 399 l 947 0 l 1335 0 l 1547 931 l 1261 931 l 1174 457 l 1146 247 l 1128 247 l 1094 457 l 981 931 l 588 931 l 463 457 l 425 247 l 407 247 l 382 457 l 304 931 l 13 931 l 207 0 z "},"Ŵ":{"ha":1560,"x_min":0,"x_max":0,"o":"m 717 1014 l 772 1072 l 789 1072 l 843 1014 l 1124 1014 l 938 1194 l 622 1194 l 438 1014 z m 594 0 l 706 399 l 771 690 l 789 690 l 850 399 l 947 0 l 1335 0 l 1547 931 l 1261 931 l 1174 457 l 1146 247 l 1128 247 l 1094 457 l 981 931 l 588 931 l 463 457 l 425 247 l 407 247 l 382 457 l 304 931 l 13 931 l 207 0 z "},"Ẁ":{"ha":1560,"x_min":0,"x_max":0,"o":"m 922 1014 l 738 1200 l 361 1200 l 642 1014 z m 594 0 l 706 399 l 771 690 l 789 690 l 850 399 l 947 0 l 1335 0 l 1547 931 l 1261 931 l 1174 457 l 1146 247 l 1128 247 l 1094 457 l 981 931 l 588 931 l 463 457 l 425 247 l 407 247 l 382 457 l 304 931 l 13 931 l 207 0 z "},"Ẃ":{"ha":1560,"x_min":0,"x_max":0,"o":"m 919 1014 l 1200 1200 l 824 1200 l 639 1014 z m 594 0 l 706 399 l 771 690 l 789 690 l 850 399 l 947 0 l 1335 0 l 1547 931 l 1261 931 l 1174 457 l 1146 247 l 1128 247 l 1094 457 l 981 931 l 588 931 l 463 457 l 425 247 l 407 247 l 382 457 l 304 931 l 13 931 l 207 0 z "},"Ẅ":{"ha":1560,"x_min":0,"x_max":0,"o":"m 1068 1014 l 1068 1207 l 821 1207 l 821 1014 z m 740 1014 l 740 1207 l 493 1207 l 493 1014 z m 594 0 l 706 399 l 771 690 l 789 690 l 850 399 l 947 0 l 1335 0 l 1547 931 l 1261 931 l 1174 457 l 1146 247 l 1128 247 l 1094 457 l 981 931 l 588 931 l 463 457 l 425 247 l 407 247 l 382 457 l 304 931 l 13 931 l 207 0 z "},"X":{"ha":1111,"x_min":0,"x_max":0,"o":"m 328 0 l 542 303 l 560 303 l 783 0 l 1125 0 l 775 451 l 775 469 l 1125 931 l 783 931 l 571 629 l 553 629 l 328 931 l -14 931 l 338 475 l 338 457 l -14 0 z "},"Y":{"ha":1064,"x_min":0,"x_max":0,"o":"m 658 0 l 658 294 l 1085 931 l 760 931 l 619 710 l 540 579 l 522 579 l 443 710 l 303 931 l -21 931 l 397 296 l 397 0 z "},"Ý":{"ha":1064,"x_min":0,"x_max":0,"o":"m 671 1014 l 951 1200 l 575 1200 l 390 1014 z m 658 0 l 658 294 l 1085 931 l 760 931 l 619 710 l 540 579 l 522 579 l 443 710 l 303 931 l -21 931 l 397 296 l 397 0 z "},"Ŷ":{"ha":1064,"x_min":0,"x_max":0,"o":"m 468 1014 l 524 1072 l 540 1072 l 594 1014 l 875 1014 l 689 1194 l 374 1194 l 189 1014 z m 658 0 l 658 294 l 1085 931 l 760 931 l 619 710 l 540 579 l 522 579 l 443 710 l 303 931 l -21 931 l 397 296 l 397 0 z "},"Ÿ":{"ha":1064,"x_min":0,"x_max":0,"o":"m 819 1014 l 819 1207 l 572 1207 l 572 1014 z m 492 1014 l 492 1207 l 244 1207 l 244 1014 z m 658 0 l 658 294 l 1085 931 l 760 931 l 619 710 l 540 579 l 522 579 l 443 710 l 303 931 l -21 931 l 397 296 l 397 0 z "},"Ỳ":{"ha":1064,"x_min":0,"x_max":0,"o":"m 674 1014 l 489 1200 l 113 1200 l 393 1014 z m 658 0 l 658 294 l 1085 931 l 760 931 l 619 710 l 540 579 l 522 579 l 443 710 l 303 931 l -21 931 l 397 296 l 397 0 z "},"Z":{"ha":968,"x_min":0,"x_max":0,"o":"m 933 0 l 933 235 l 407 235 l 407 253 l 925 696 l 925 931 l 43 931 l 43 696 l 531 696 l 531 678 l 35 235 l 35 0 z "},"Ź":{"ha":968,"x_min":0,"x_max":0,"o":"m 624 1014 l 904 1200 l 528 1200 l 343 1014 z m 933 0 l 933 235 l 407 235 l 407 253 l 925 696 l 925 931 l 43 931 l 43 696 l 531 696 l 531 678 l 35 235 l 35 0 z "},"Ż":{"ha":968,"x_min":0,"x_max":0,"o":"m 615 1014 l 615 1207 l 354 1207 l 354 1014 z m 933 0 l 933 235 l 407 235 l 407 253 l 925 696 l 925 931 l 43 931 l 43 696 l 531 696 l 531 678 l 35 235 l 35 0 z "},"Ž":{"ha":968,"x_min":0,"x_max":0,"o":"m 549 1194 l 493 1136 l 476 1136 l 422 1194 l 142 1194 l 328 1014 l 643 1014 l 828 1194 z m 933 0 l 933 235 l 407 235 l 407 253 l 925 696 l 925 931 l 43 931 l 43 696 l 531 696 l 531 678 l 35 235 l 35 0 z "},"Æ":{"ha":1689,"x_min":0,"x_max":0,"o":"m 313 0 l 435 172 l 831 172 l 831 0 l 1657 0 l 1657 235 l 1092 235 l 1092 351 l 1636 351 l 1636 585 l 1092 585 l 1092 696 l 1657 696 l 1657 931 l 663 931 l -11 0 z m 817 711 l 831 711 l 831 407 l 601 407 z "},"Ǽ":{"ha":1689,"x_min":0,"x_max":0,"o":"m 1382 1014 l 1663 1200 l 1286 1200 l 1101 1014 z m 313 0 l 435 172 l 831 172 l 831 0 l 1657 0 l 1657 235 l 1092 235 l 1092 351 l 1636 351 l 1636 585 l 1092 585 l 1092 696 l 1657 696 l 1657 931 l 663 931 l -11 0 z m 817 711 l 831 711 l 831 407 l 601 407 z "},"Ð":{"ha":1158,"x_min":0,"x_max":0,"o":"m 629 0 b 1131 465 936 0 1131 171 b 629 931 1131 760 936 931 l 158 931 l 158 582 l 14 582 l 14 349 l 158 349 l 158 0 z m 672 349 l 672 582 l 419 582 l 419 696 l 629 696 b 851 465 794 696 851 675 b 629 235 851 256 794 235 l 419 235 l 419 349 z "},"Ø":{"ha":1092,"x_min":0,"x_max":0,"o":"m 543 -14 b 1064 465 875 -14 1064 175 b 993 735 1064 569 1039 661 l 1093 822 l 971 954 l 865 863 b 543 944 782 915 674 944 b 28 465 219 944 28 756 b 100 194 28 361 53 269 l -1 107 l 121 -25 l 228 68 b 543 -14 310 15 417 -14 z m 306 465 b 543 694 306 650 354 694 b 661 685 590 694 629 692 l 311 379 b 306 465 307 404 306 432 z m 543 236 b 431 244 499 236 461 239 l 781 550 b 786 465 785 526 786 497 b 543 236 786 281 732 236 z "},"Ǿ":{"ha":1092,"x_min":0,"x_max":0,"o":"m 685 1014 l 965 1200 l 589 1200 l 404 1014 z m 543 -14 b 1064 465 875 -14 1064 175 b 993 735 1064 569 1039 661 l 1093 822 l 971 954 l 865 863 b 543 944 782 915 674 944 b 28 465 219 944 28 756 b 100 194 28 361 53 269 l -1 107 l 121 -25 l 228 68 b 543 -14 310 15 417 -14 z m 306 465 b 543 694 306 650 354 694 b 661 685 590 694 629 692 l 311 379 b 306 465 307 404 306 432 z m 543 236 b 431 244 499 236 461 239 l 781 550 b 786 465 785 526 786 497 b 543 236 786 281 732 236 z "},"Þ":{"ha":944,"x_min":0,"x_max":0,"o":"m 303 0 l 303 114 l 571 114 b 931 467 792 114 931 243 b 571 818 931 690 792 818 l 303 818 l 303 931 l 42 931 l 42 0 z m 542 583 b 671 467 633 583 671 565 b 542 349 671 367 633 349 l 303 349 l 303 583 z "},"Đ":{"ha":1158,"x_min":0,"x_max":0,"o":"m 629 0 b 1131 465 936 0 1131 171 b 629 931 1131 760 936 931 l 158 931 l 158 582 l 14 582 l 14 349 l 158 349 l 158 0 z m 672 349 l 672 582 l 419 582 l 419 696 l 629 696 b 851 465 794 696 851 675 b 629 235 851 256 794 235 l 419 235 l 419 349 z "},"Ħ":{"ha":1039,"x_min":0,"x_max":0,"o":"m 303 0 l 303 350 l 736 350 l 736 0 l 997 0 l 997 635 l 1094 635 l 1094 869 l 997 869 l 997 931 l 736 931 l 736 869 l 303 869 l 303 931 l 42 931 l 42 869 l -57 869 l -57 635 l 42 635 l 42 0 z m 303 585 l 303 635 l 736 635 l 736 585 z "},"Ĳ":{"ha":1267,"x_min":0,"x_max":0,"o":"m 303 0 l 303 931 l 42 931 l 42 0 z m 793 -14 b 1231 385 1113 -14 1231 125 l 1231 931 l 953 931 l 953 388 b 793 239 953 272 942 239 b 636 401 643 239 636 275 l 636 435 l 358 435 l 358 399 b 793 -14 358 129 475 -14 z "},"Ŀ":{"ha":868,"x_min":0,"x_max":0,"o":"m 314 1014 l 314 1207 l 53 1207 l 53 1014 z m 840 0 l 840 235 l 303 235 l 303 931 l 42 931 l 42 0 z "},"Ł":{"ha":943,"x_min":0,"x_max":0,"o":"m 661 467 l 661 708 l 378 610 l 378 931 l 117 931 l 117 519 l 14 483 l 14 242 l 117 278 l 117 0 l 915 0 l 915 235 l 378 235 l 378 368 z "},"Ŋ":{"ha":1022,"x_min":0,"x_max":0,"o":"m 621 -236 b 981 104 840 -236 981 -161 l 981 931 l 719 931 l 719 571 l 732 368 l 714 368 l 578 582 l 319 931 l 42 931 l 42 0 l 303 0 l 303 364 l 292 542 l 310 542 l 428 358 l 692 14 b 615 -3 682 3 660 -3 l 451 -3 l 451 -236 z "},"Œ":{"ha":1585,"x_min":0,"x_max":0,"o":"m 1553 0 l 1553 235 l 988 235 l 988 351 l 1532 351 l 1532 585 l 988 585 l 988 696 l 1553 696 l 1553 931 l 517 931 b 28 465 224 931 28 760 b 517 0 28 171 224 0 z m 517 235 b 308 465 364 235 308 256 b 517 696 308 675 364 696 l 726 696 l 726 235 z "},"Ŧ":{"ha":960,"x_min":0,"x_max":0,"o":"m 611 0 l 611 318 l 810 318 l 810 551 l 611 551 l 611 696 l 939 696 l 939 931 l 21 931 l 21 696 l 350 696 l 350 551 l 151 551 l 151 318 l 350 318 l 350 0 z "},"a":{"ha":826,"x_min":0,"x_max":0,"o":"m 268 -14 b 532 147 419 -14 506 49 l 546 147 l 546 0 l 790 0 l 790 399 b 428 714 790 594 672 714 b 35 408 190 714 35 594 l 35 406 l 296 406 l 296 411 b 408 486 296 469 322 486 b 532 404 501 486 532 475 l 532 390 l 247 363 b 21 178 89 347 21 276 b 268 -14 21 58 110 -14 z m 283 194 b 317 221 283 210 293 218 l 531 246 b 346 168 524 183 472 168 b 283 194 306 168 283 172 z "},"à":{"ha":826,"x_min":0,"x_max":0,"o":"m 551 778 l 367 958 l -11 958 l 269 778 z m 268 -14 b 532 147 419 -14 506 49 l 546 147 l 546 0 l 790 0 l 790 399 b 428 714 790 594 672 714 b 35 408 190 714 35 594 l 35 406 l 296 406 l 296 411 b 408 486 296 469 322 486 b 532 404 501 486 532 475 l 532 390 l 247 363 b 21 178 89 347 21 276 b 268 -14 21 58 110 -14 z m 283 194 b 317 221 283 210 293 218 l 531 246 b 346 168 524 183 472 168 b 283 194 306 168 283 172 z "},"á":{"ha":826,"x_min":0,"x_max":0,"o":"m 556 778 l 836 958 l 458 958 l 272 778 z m 268 -14 b 532 147 419 -14 506 49 l 546 147 l 546 0 l 790 0 l 790 399 b 428 714 790 594 672 714 b 35 408 190 714 35 594 l 35 406 l 296 406 l 296 411 b 408 486 296 469 322 486 b 532 404 501 486 532 475 l 532 390 l 247 363 b 21 178 89 347 21 276 b 268 -14 21 58 110 -14 z m 283 194 b 317 221 283 210 293 218 l 531 246 b 346 168 524 183 472 168 b 283 194 306 168 283 172 z "},"â":{"ha":826,"x_min":0,"x_max":0,"o":"m 350 778 l 406 836 l 422 836 l 476 778 l 757 778 l 571 958 l 256 958 l 71 778 z m 268 -14 b 532 147 419 -14 506 49 l 546 147 l 546 0 l 790 0 l 790 399 b 428 714 790 594 672 714 b 35 408 190 714 35 594 l 35 406 l 296 406 l 296 411 b 408 486 296 469 322 486 b 532 404 501 486 532 475 l 532 390 l 247 363 b 21 178 89 347 21 276 b 268 -14 21 58 110 -14 z m 283 194 b 317 221 283 210 293 218 l 531 246 b 346 168 524 183 472 168 b 283 194 306 168 283 172 z "},"ã":{"ha":826,"x_min":0,"x_max":0,"o":"m 301 753 l 301 775 b 325 800 301 788 306 800 b 376 788 336 800 353 796 l 440 767 b 567 740 481 753 524 740 b 700 899 661 740 700 807 l 700 967 l 528 967 l 528 957 b 497 922 528 932 518 922 b 442 936 483 922 465 928 l 394 953 b 272 979 343 971 303 979 b 128 822 149 979 128 894 l 128 753 z m 268 -14 b 532 147 419 -14 506 49 l 546 147 l 546 0 l 790 0 l 790 399 b 428 714 790 594 672 714 b 35 408 190 714 35 594 l 35 406 l 296 406 l 296 411 b 408 486 296 469 322 486 b 532 404 501 486 532 475 l 532 390 l 247 363 b 21 178 89 347 21 276 b 268 -14 21 58 110 -14 z m 283 194 b 317 221 283 210 293 218 l 531 246 b 346 168 524 183 472 168 b 283 194 306 168 283 172 z "},"ä":{"ha":826,"x_min":0,"x_max":0,"o":"m 701 778 l 701 971 l 454 971 l 454 778 z m 374 778 l 374 971 l 126 971 l 126 778 z m 268 -14 b 532 147 419 -14 506 49 l 546 147 l 546 0 l 790 0 l 790 399 b 428 714 790 594 672 714 b 35 408 190 714 35 594 l 35 406 l 296 406 l 296 411 b 408 486 296 469 322 486 b 532 404 501 486 532 475 l 532 390 l 247 363 b 21 178 89 347 21 276 b 268 -14 21 58 110 -14 z m 283 194 b 317 221 283 210 293 218 l 531 246 b 346 168 524 183 472 168 b 283 194 306 168 283 172 z "},"å":{"ha":826,"x_min":0,"x_max":0,"o":"m 414 756 b 561 878 501 756 561 804 b 414 1000 561 951 501 1000 b 267 878 326 1000 267 951 b 414 756 267 804 326 756 z m 414 854 b 374 878 379 854 374 863 b 414 901 374 893 379 901 b 454 878 449 901 454 893 b 414 854 454 863 449 854 z m 268 -14 b 532 147 419 -14 506 49 l 546 147 l 546 0 l 790 0 l 790 399 b 428 714 790 594 672 714 b 35 408 190 714 35 594 l 35 406 l 296 406 l 296 411 b 408 486 296 469 322 486 b 532 404 501 486 532 475 l 532 390 l 247 363 b 21 178 89 347 21 276 b 268 -14 21 58 110 -14 z m 283 194 b 317 221 283 210 293 218 l 531 246 b 346 168 524 183 472 168 b 283 194 306 168 283 172 z "},"ā":{"ha":826,"x_min":0,"x_max":0,"o":"m 660 775 l 660 961 l 167 961 l 167 775 z m 268 -14 b 532 147 419 -14 506 49 l 546 147 l 546 0 l 790 0 l 790 399 b 428 714 790 594 672 714 b 35 408 190 714 35 594 l 35 406 l 296 406 l 296 411 b 408 486 296 469 322 486 b 532 404 501 486 532 475 l 532 390 l 247 363 b 21 178 89 347 21 276 b 268 -14 21 58 110 -14 z m 283 194 b 317 221 283 210 293 218 l 531 246 b 346 168 524 183 472 168 b 283 194 306 168 283 172 z "},"ă":{"ha":826,"x_min":0,"x_max":0,"o":"m 414 764 b 658 958 560 764 658 846 l 658 964 l 476 964 l 476 963 b 414 915 476 926 469 915 b 351 963 360 915 351 926 l 351 964 l 169 964 l 169 958 b 414 764 169 846 268 764 z m 268 -14 b 532 147 419 -14 506 49 l 546 147 l 546 0 l 790 0 l 790 399 b 428 714 790 594 672 714 b 35 408 190 714 35 594 l 35 406 l 296 406 l 296 411 b 408 486 296 469 322 486 b 532 404 501 486 532 475 l 532 390 l 247 363 b 21 178 89 347 21 276 b 268 -14 21 58 110 -14 z m 283 194 b 317 221 283 210 293 218 l 531 246 b 346 168 524 183 472 168 b 283 194 306 168 283 172 z "},"ą":{"ha":826,"x_min":0,"x_max":0,"o":"m 268 -14 b 532 147 419 -14 506 49 l 546 147 l 546 0 l 622 0 l 590 -33 b 521 -161 554 -72 521 -110 b 664 -260 521 -219 558 -260 l 803 -260 l 803 -107 l 728 -107 b 717 -99 719 -107 717 -104 b 728 -78 717 -93 721 -86 l 790 0 l 790 399 b 428 714 790 594 672 714 b 35 408 190 714 35 594 l 35 406 l 296 406 l 296 411 b 408 486 296 469 322 486 b 532 404 501 486 532 475 l 532 390 l 247 363 b 21 178 89 347 21 276 b 268 -14 21 58 110 -14 z m 283 194 b 317 221 283 210 293 218 l 531 246 b 346 168 524 183 472 168 b 283 194 306 168 283 172 z "},"b":{"ha":929,"x_min":0,"x_max":0,"o":"m 286 0 l 286 189 l 300 189 b 569 -14 322 50 406 -14 b 901 350 783 -14 901 124 b 581 714 901 578 786 714 b 317 519 415 714 338 636 l 303 519 l 303 931 l 42 931 l 42 0 z m 303 349 l 303 358 b 475 476 303 457 358 476 b 638 350 596 476 638 443 b 475 225 638 257 596 225 b 303 349 358 225 303 247 z "},"c":{"ha":854,"x_min":0,"x_max":0,"o":"m 435 -14 b 826 296 674 -14 826 110 l 826 319 l 567 319 l 567 307 b 429 221 567 235 514 221 b 288 350 333 221 288 242 b 429 481 288 460 333 481 b 567 393 514 481 567 465 l 567 382 l 826 382 l 826 404 b 435 714 826 592 674 714 b 28 350 186 714 28 578 b 435 -14 28 124 186 -14 z "},"ç":{"ha":854,"x_min":0,"x_max":0,"o":"m 508 -335 b 669 -190 614 -335 669 -278 b 508 -50 669 -106 614 -50 l 489 -50 l 489 -11 b 826 296 696 6 826 124 l 826 319 l 567 319 l 567 307 b 429 221 567 235 514 221 b 288 350 333 221 288 242 b 429 481 288 460 333 481 b 567 393 514 481 567 465 l 567 382 l 826 382 l 826 404 b 435 714 826 592 674 714 b 28 350 186 714 28 578 b 357 -10 28 149 154 17 l 357 -182 l 513 -182 b 524 -192 521 -182 524 -185 b 513 -200 524 -197 521 -200 l 357 -200 l 357 -335 z "},"ć":{"ha":854,"x_min":0,"x_max":0,"o":"m 569 778 l 850 958 l 472 958 l 286 778 z m 435 -14 b 826 296 674 -14 826 110 l 826 319 l 567 319 l 567 307 b 429 221 567 235 514 221 b 288 350 333 221 288 242 b 429 481 288 460 333 481 b 567 393 514 481 567 465 l 567 382 l 826 382 l 826 404 b 435 714 826 592 674 714 b 28 350 186 714 28 578 b 435 -14 28 124 186 -14 z "},"ċ":{"ha":854,"x_min":0,"x_max":0,"o":"m 558 778 l 558 971 l 297 971 l 297 778 z m 435 -14 b 826 296 674 -14 826 110 l 826 319 l 567 319 l 567 307 b 429 221 567 235 514 221 b 288 350 333 221 288 242 b 429 481 288 460 333 481 b 567 393 514 481 567 465 l 567 382 l 826 382 l 826 404 b 435 714 826 592 674 714 b 28 350 186 714 28 578 b 435 -14 28 124 186 -14 z "},"č":{"ha":854,"x_min":0,"x_max":0,"o":"m 585 778 l 771 958 l 481 958 l 436 900 l 419 900 l 375 958 l 85 958 l 269 778 z m 435 -14 b 826 296 674 -14 826 110 l 826 319 l 567 319 l 567 307 b 429 221 567 235 514 221 b 288 350 333 221 288 242 b 429 481 288 460 333 481 b 567 393 514 481 567 465 l 567 382 l 826 382 l 826 404 b 435 714 826 592 674 714 b 28 350 186 714 28 578 b 435 -14 28 124 186 -14 z "},"d":{"ha":929,"x_min":0,"x_max":0,"o":"m 360 -14 b 629 189 524 -14 607 50 l 643 189 l 643 0 l 888 0 l 888 931 l 626 931 l 626 519 l 613 519 b 349 714 592 636 514 714 b 28 350 143 714 28 578 b 360 -14 28 124 146 -14 z m 292 350 b 454 476 292 443 333 476 b 626 358 571 476 626 457 l 626 349 b 454 225 626 247 571 225 b 292 350 333 225 292 257 z "},"ď":{"ha":1142,"x_min":0,"x_max":0,"o":"m 360 -14 b 629 189 524 -14 607 50 l 643 189 l 643 0 l 888 0 l 888 931 l 626 931 l 626 519 l 613 519 b 349 714 592 636 514 714 b 28 350 143 714 28 578 b 360 -14 28 124 146 -14 z m 1004 578 b 1171 742 1111 578 1171 631 l 1171 931 l 924 931 l 924 750 l 1033 750 l 1033 739 b 997 704 1033 711 1022 704 l 933 704 l 933 578 z m 292 350 b 454 476 292 443 333 476 b 626 358 571 476 626 457 l 626 349 b 454 225 626 247 571 225 b 292 350 333 225 292 257 z "},"e":{"ha":850,"x_min":0,"x_max":0,"o":"m 432 -14 b 817 251 668 -14 817 96 l 817 268 l 556 268 l 556 253 b 422 193 556 211 528 193 b 269 301 311 193 274 217 l 818 301 b 822 368 821 326 822 344 b 426 714 822 593 668 714 b 28 350 193 714 28 578 b 432 -14 28 88 194 -14 z m 421 514 b 569 433 518 514 560 493 l 274 433 b 421 514 285 493 325 514 z "},"è":{"ha":850,"x_min":0,"x_max":0,"o":"m 563 778 l 378 958 l 0 958 l 281 778 z m 432 -14 b 817 251 668 -14 817 96 l 817 268 l 556 268 l 556 253 b 422 193 556 211 528 193 b 269 301 311 193 274 217 l 818 301 b 822 368 821 326 822 344 b 426 714 822 593 668 714 b 28 350 193 714 28 578 b 432 -14 28 88 194 -14 z m 421 514 b 569 433 518 514 560 493 l 274 433 b 421 514 285 493 325 514 z "},"é":{"ha":850,"x_min":0,"x_max":0,"o":"m 567 778 l 847 958 l 469 958 l 283 778 z m 432 -14 b 817 251 668 -14 817 96 l 817 268 l 556 268 l 556 253 b 422 193 556 211 528 193 b 269 301 311 193 274 217 l 818 301 b 822 368 821 326 822 344 b 426 714 822 593 668 714 b 28 350 193 714 28 578 b 432 -14 28 88 194 -14 z m 421 514 b 569 433 518 514 560 493 l 274 433 b 421 514 285 493 325 514 z "},"ê":{"ha":850,"x_min":0,"x_max":0,"o":"m 361 778 l 417 836 l 433 836 l 488 778 l 768 778 l 582 958 l 267 958 l 82 778 z m 432 -14 b 817 251 668 -14 817 96 l 817 268 l 556 268 l 556 253 b 422 193 556 211 528 193 b 269 301 311 193 274 217 l 818 301 b 822 368 821 326 822 344 b 426 714 822 593 668 714 b 28 350 193 714 28 578 b 432 -14 28 88 194 -14 z m 421 514 b 569 433 518 514 560 493 l 274 433 b 421 514 285 493 325 514 z "},"ë":{"ha":850,"x_min":0,"x_max":0,"o":"m 713 778 l 713 971 l 465 971 l 465 778 z m 385 778 l 385 971 l 138 971 l 138 778 z m 432 -14 b 817 251 668 -14 817 96 l 817 268 l 556 268 l 556 253 b 422 193 556 211 528 193 b 269 301 311 193 274 217 l 818 301 b 822 368 821 326 822 344 b 426 714 822 593 668 714 b 28 350 193 714 28 578 b 432 -14 28 88 194 -14 z m 421 514 b 569 433 518 514 560 493 l 274 433 b 421 514 285 493 325 514 z "},"ē":{"ha":850,"x_min":0,"x_max":0,"o":"m 671 775 l 671 961 l 178 961 l 178 775 z m 432 -14 b 817 251 668 -14 817 96 l 817 268 l 556 268 l 556 253 b 422 193 556 211 528 193 b 269 301 311 193 274 217 l 818 301 b 822 368 821 326 822 344 b 426 714 822 593 668 714 b 28 350 193 714 28 578 b 432 -14 28 88 194 -14 z m 421 514 b 569 433 518 514 560 493 l 274 433 b 421 514 285 493 325 514 z "},"ĕ":{"ha":850,"x_min":0,"x_max":0,"o":"m 425 764 b 669 958 571 764 669 846 l 669 964 l 488 964 l 488 963 b 425 915 488 926 481 915 b 363 963 371 915 363 926 l 363 964 l 181 964 l 181 958 b 425 764 181 846 279 764 z m 432 -14 b 817 251 668 -14 817 96 l 817 268 l 556 268 l 556 253 b 422 193 556 211 528 193 b 269 301 311 193 274 217 l 818 301 b 822 368 821 326 822 344 b 426 714 822 593 668 714 b 28 350 193 714 28 578 b 432 -14 28 88 194 -14 z m 421 514 b 569 433 518 514 560 493 l 274 433 b 421 514 285 493 325 514 z "},"ė":{"ha":850,"x_min":0,"x_max":0,"o":"m 556 778 l 556 971 l 294 971 l 294 778 z m 432 -14 b 817 251 668 -14 817 96 l 817 268 l 556 268 l 556 253 b 422 193 556 211 528 193 b 269 301 311 193 274 217 l 818 301 b 822 368 821 326 822 344 b 426 714 822 593 668 714 b 28 350 193 714 28 578 b 432 -14 28 88 194 -14 z m 421 514 b 569 433 518 514 560 493 l 274 433 b 421 514 285 493 325 514 z "},"ę":{"ha":850,"x_min":0,"x_max":0,"o":"m 579 -260 l 579 -107 l 504 -107 b 493 -99 496 -107 493 -104 b 504 -78 493 -93 497 -86 l 567 0 b 817 251 724 33 817 128 l 817 268 l 556 268 l 556 253 b 422 193 556 211 528 193 b 269 301 311 193 274 217 l 818 301 b 822 368 821 326 822 344 b 426 714 822 593 668 714 b 28 350 193 714 28 578 b 386 -12 28 104 174 0 l 367 -33 b 297 -161 331 -72 297 -110 b 440 -260 297 -219 335 -260 z m 421 514 b 569 433 518 514 560 493 l 274 433 b 421 514 285 493 325 514 z "},"ě":{"ha":850,"x_min":0,"x_max":0,"o":"m 582 778 l 768 958 l 478 958 l 433 900 l 417 900 l 372 958 l 82 958 l 267 778 z m 432 -14 b 817 251 668 -14 817 96 l 817 268 l 556 268 l 556 253 b 422 193 556 211 528 193 b 269 301 311 193 274 217 l 818 301 b 822 368 821 326 822 344 b 426 714 822 593 668 714 b 28 350 193 714 28 578 b 432 -14 28 88 194 -14 z m 421 514 b 569 433 518 514 560 493 l 274 433 b 421 514 285 493 325 514 z "},"f":{"ha":563,"x_min":0,"x_max":0,"o":"m 363 0 l 363 486 l 549 486 l 549 700 l 346 700 b 451 744 344 738 379 744 l 549 744 l 549 931 l 493 931 b 107 700 264 931 135 832 l 7 700 l 7 486 l 101 486 l 101 0 z "},"ﬀ":{"ha":1125,"x_min":0,"x_max":0,"o":"m 363 0 l 363 486 l 549 486 l 549 700 l 346 700 b 451 744 344 738 379 744 l 549 744 l 549 931 l 493 931 b 107 700 264 931 135 832 l 7 700 l 7 486 l 101 486 l 101 0 z m 925 0 l 925 486 l 1111 486 l 1111 700 l 908 700 b 1014 744 907 738 942 744 l 1111 744 l 1111 931 l 1056 931 b 669 700 826 931 697 832 l 569 700 l 569 486 l 664 486 l 664 0 z "},"ﬃ":{"ha":1469,"x_min":0,"x_max":0,"o":"m 363 0 l 363 486 l 549 486 l 549 700 l 346 700 b 451 744 344 738 379 744 l 549 744 l 549 931 l 493 931 b 107 700 264 931 135 832 l 7 700 l 7 486 l 101 486 l 101 0 z m 925 0 l 925 486 l 1111 486 l 1111 700 l 908 700 b 1014 744 907 738 942 744 l 1111 744 l 1111 931 l 1056 931 b 669 700 826 931 697 832 l 569 700 l 569 486 l 664 486 l 664 0 z m 1428 764 l 1428 931 l 1167 931 l 1167 764 z m 1428 0 l 1428 700 l 1167 700 l 1167 0 z "},"ﬄ":{"ha":1469,"x_min":0,"x_max":0,"o":"m 363 0 l 363 486 l 549 486 l 549 700 l 346 700 b 451 744 344 738 379 744 l 549 744 l 549 931 l 493 931 b 107 700 264 931 135 832 l 7 700 l 7 486 l 101 486 l 101 0 z m 925 0 l 925 486 l 1111 486 l 1111 700 l 908 700 b 1014 744 907 738 942 744 l 1111 744 l 1111 931 l 1056 931 b 669 700 826 931 697 832 l 569 700 l 569 486 l 664 486 l 664 0 z m 1428 0 l 1428 931 l 1167 931 l 1167 0 z "},"ﬁ":{"ha":907,"x_min":0,"x_max":0,"o":"m 363 0 l 363 486 l 549 486 l 549 700 l 346 700 b 451 744 344 738 379 744 l 549 744 l 549 931 l 493 931 b 107 700 264 931 135 832 l 7 700 l 7 486 l 101 486 l 101 0 z m 865 764 l 865 931 l 604 931 l 604 764 z m 865 0 l 865 700 l 604 700 l 604 0 z "},"ﬂ":{"ha":907,"x_min":0,"x_max":0,"o":"m 363 0 l 363 486 l 549 486 l 549 700 l 346 700 b 451 744 344 738 379 744 l 549 744 l 549 931 l 493 931 b 107 700 264 931 135 832 l 7 700 l 7 486 l 101 486 l 101 0 z m 865 0 l 865 931 l 604 931 l 604 0 z "},"g":{"ha":915,"x_min":0,"x_max":0,"o":"m 353 78 b 599 247 507 78 581 146 l 613 247 l 613 100 b 474 -35 613 -18 586 -35 b 331 36 338 -35 331 -21 l 69 36 b 456 -250 69 -147 211 -250 b 874 118 725 -250 874 -132 l 874 700 l 629 700 l 629 536 l 615 536 b 360 714 596 657 501 714 b 28 397 153 714 28 594 b 353 78 28 197 144 78 z m 292 397 b 447 489 292 465 325 489 b 613 399 564 489 613 474 l 613 389 b 447 301 613 315 564 301 b 292 397 325 301 292 328 z "},"ĝ":{"ha":915,"x_min":0,"x_max":0,"o":"m 388 778 l 443 836 l 460 836 l 514 778 l 794 778 l 608 958 l 293 958 l 108 778 z m 353 78 b 599 247 507 78 581 146 l 613 247 l 613 100 b 474 -35 613 -18 586 -35 b 331 36 338 -35 331 -21 l 69 36 b 456 -250 69 -147 211 -250 b 874 118 725 -250 874 -132 l 874 700 l 629 700 l 629 536 l 615 536 b 360 714 596 657 501 714 b 28 397 153 714 28 594 b 353 78 28 197 144 78 z m 292 397 b 447 489 292 465 325 489 b 613 399 564 489 613 474 l 613 389 b 447 301 613 315 564 301 b 292 397 325 301 292 328 z "},"ğ":{"ha":915,"x_min":0,"x_max":0,"o":"m 451 764 b 696 958 597 764 696 846 l 696 964 l 514 964 l 514 963 b 451 915 514 926 507 915 b 389 963 397 915 389 926 l 389 964 l 207 964 l 207 958 b 451 764 207 846 306 764 z m 353 78 b 599 247 507 78 581 146 l 613 247 l 613 100 b 474 -35 613 -18 586 -35 b 331 36 338 -35 331 -21 l 69 36 b 456 -250 69 -147 211 -250 b 874 118 725 -250 874 -132 l 874 700 l 629 700 l 629 536 l 615 536 b 360 714 596 657 501 714 b 28 397 153 714 28 594 b 353 78 28 197 144 78 z m 292 397 b 447 489 292 465 325 489 b 613 399 564 489 613 474 l 613 389 b 447 301 613 315 564 301 b 292 397 325 301 292 328 z "},"ġ":{"ha":915,"x_min":0,"x_max":0,"o":"m 582 778 l 582 971 l 321 971 l 321 778 z m 353 78 b 599 247 507 78 581 146 l 613 247 l 613 100 b 474 -35 613 -18 586 -35 b 331 36 338 -35 331 -21 l 69 36 b 456 -250 69 -147 211 -250 b 874 118 725 -250 874 -132 l 874 700 l 629 700 l 629 536 l 615 536 b 360 714 596 657 501 714 b 28 397 153 714 28 594 b 353 78 28 197 144 78 z m 292 397 b 447 489 292 465 325 489 b 613 399 564 489 613 474 l 613 389 b 447 301 613 315 564 301 b 292 397 325 301 292 328 z "},"ģ":{"ha":915,"x_min":0,"x_max":0,"o":"m 479 958 l 274 778 l 614 778 l 744 958 z m 353 78 b 599 247 507 78 581 146 l 613 247 l 613 100 b 474 -35 613 -18 586 -35 b 331 36 338 -35 331 -21 l 69 36 b 456 -250 69 -147 211 -250 b 874 118 725 -250 874 -132 l 874 700 l 629 700 l 629 536 l 615 536 b 360 714 596 657 501 714 b 28 397 153 714 28 594 b 353 78 28 197 144 78 z m 292 397 b 447 489 292 465 325 489 b 613 399 564 489 613 474 l 613 389 b 447 301 613 315 564 301 b 292 397 325 301 292 328 z "},"h":{"ha":907,"x_min":0,"x_max":0,"o":"m 303 0 l 303 361 b 453 481 303 451 332 481 b 610 353 572 481 610 450 l 610 0 l 871 0 l 871 440 b 596 714 871 596 782 714 b 317 488 417 714 339 606 l 303 488 l 303 931 l 42 931 l 42 0 z "},"ĥ":{"ha":907,"x_min":0,"x_max":0,"o":"m 106 1014 l 161 1072 l 178 1072 l 232 1014 l 513 1014 l 326 1194 l 11 1194 l -174 1014 z m 303 0 l 303 361 b 453 481 303 451 332 481 b 610 353 572 481 610 450 l 610 0 l 871 0 l 871 440 b 596 714 871 596 782 714 b 317 488 417 714 339 606 l 303 488 l 303 931 l 42 931 l 42 0 z "},"i":{"ha":344,"x_min":0,"x_max":0,"o":"m 303 764 l 303 931 l 42 931 l 42 764 z m 303 0 l 303 700 l 42 700 l 42 0 z "},"ì":{"ha":388,"x_min":0,"x_max":0,"o":"m 332 778 l 147 958 l -231 958 l 50 778 z m 324 0 l 324 694 l 64 694 l 64 0 z "},"í":{"ha":388,"x_min":0,"x_max":0,"o":"m 336 778 l 617 958 l 239 958 l 53 778 z m 324 0 l 324 694 l 64 694 l 64 0 z "},"î":{"ha":388,"x_min":0,"x_max":0,"o":"m 131 778 l 186 836 l 203 836 l 257 778 l 538 778 l 351 958 l 36 958 l -149 778 z m 324 0 l 324 694 l 64 694 l 64 0 z "},"ï":{"ha":388,"x_min":0,"x_max":0,"o":"m 482 778 l 482 971 l 235 971 l 235 778 z m 154 778 l 154 971 l -93 971 l -93 778 z m 324 0 l 324 694 l 64 694 l 64 0 z "},"ĩ":{"ha":388,"x_min":0,"x_max":0,"o":"m 82 753 l 82 775 b 106 800 82 788 86 800 b 157 788 117 800 133 796 l 221 767 b 347 740 261 753 304 740 b 481 899 442 740 481 807 l 481 967 l 308 967 l 308 957 b 278 922 308 932 299 922 b 222 936 264 922 246 928 l 175 953 b 53 979 124 971 83 979 b -92 822 -71 979 -92 894 l -92 753 z m 324 0 l 324 694 l 64 694 l 64 0 z "},"ī":{"ha":388,"x_min":0,"x_max":0,"o":"m 440 775 l 440 961 l -53 961 l -53 775 z m 324 0 l 324 694 l 64 694 l 64 0 z "},"ĭ":{"ha":388,"x_min":0,"x_max":0,"o":"m 194 764 b 439 958 340 764 439 846 l 439 964 l 257 964 l 257 963 b 194 915 257 926 250 915 b 132 963 140 915 132 926 l 132 964 l -50 964 l -50 958 b 194 764 -50 846 49 764 z m 324 0 l 324 694 l 64 694 l 64 0 z "},"į":{"ha":344,"x_min":0,"x_max":0,"o":"m 303 764 l 303 931 l 42 931 l 42 764 z m 315 -260 l 315 -107 l 240 -107 b 229 -99 232 -107 229 -104 b 240 -78 229 -93 233 -86 l 303 0 l 303 700 l 42 700 l 42 0 l 135 0 l 103 -33 b 33 -161 67 -72 33 -110 b 176 -260 33 -219 71 -260 z "},"j":{"ha":344,"x_min":0,"x_max":0,"o":"m 303 764 l 303 931 l 42 931 l 42 764 z m -11 -236 b 303 44 189 -236 303 -176 l 303 700 l 42 700 l 42 6 b -10 -44 42 -32 25 -44 l -36 -44 l -36 -236 z "},"ĵ":{"ha":344,"x_min":0,"x_max":0,"o":"m 108 778 l 164 836 l 181 836 l 235 778 l 515 778 l 329 958 l 14 958 l -171 778 z m -11 -236 b 303 44 189 -236 303 -176 l 303 700 l 42 700 l 42 6 b -10 -44 42 -32 25 -44 l -36 -44 l -36 -236 z "},"k":{"ha":875,"x_min":0,"x_max":0,"o":"m 303 0 l 303 224 l 429 224 l 576 0 l 885 0 l 640 360 l 889 700 l 581 700 l 426 457 l 303 457 l 303 931 l 42 931 l 42 0 z "},"ķ":{"ha":875,"x_min":0,"x_max":0,"o":"m 303 0 l 303 224 l 429 224 l 576 0 l 885 0 l 640 360 l 889 700 l 581 700 l 426 457 l 303 457 l 303 931 l 42 931 l 42 0 z m 449 -278 l 654 -97 l 314 -97 l 183 -278 z "},"l":{"ha":344,"x_min":0,"x_max":0,"o":"m 303 0 l 303 931 l 42 931 l 42 0 z "},"ĺ":{"ha":344,"x_min":0,"x_max":0,"o":"m 322 1014 l 603 1200 l 226 1200 l 42 1014 z m 303 0 l 303 931 l 42 931 l 42 0 z "},"ļ":{"ha":344,"x_min":0,"x_max":0,"o":"m 303 0 l 303 931 l 42 931 l 42 0 z m 135 -278 l 340 -97 l 0 -97 l -131 -278 z "},"ľ":{"ha":643,"x_min":0,"x_max":0,"o":"m 303 0 l 303 931 l 42 931 l 42 0 z m 469 578 b 636 742 576 578 636 631 l 636 931 l 389 931 l 389 750 l 499 750 l 499 739 b 463 704 499 711 488 704 l 399 704 l 399 578 z "},"m":{"ha":1392,"x_min":0,"x_max":0,"o":"m 303 0 l 303 361 b 432 481 303 451 325 481 b 568 353 540 481 568 450 l 568 0 l 829 0 l 829 361 b 958 481 829 451 851 481 b 1094 353 1067 481 1094 450 l 1094 0 l 1356 0 l 1356 449 b 1092 714 1356 600 1271 714 b 828 488 910 714 843 604 l 814 488 b 556 714 800 614 721 714 b 300 488 379 714 315 604 l 286 488 l 286 700 l 42 700 l 42 0 z "},"n":{"ha":893,"x_min":0,"x_max":0,"o":"m 303 0 l 303 361 b 446 481 303 451 331 481 b 596 353 560 481 596 450 l 596 0 l 857 0 l 857 449 b 579 714 857 600 768 714 b 300 488 392 714 315 604 l 286 488 l 286 700 l 42 700 l 42 0 z "},"ñ":{"ha":893,"x_min":0,"x_max":0,"o":"m 336 753 l 336 775 b 360 800 336 788 340 800 b 411 788 371 800 388 796 l 475 767 b 601 740 515 753 558 740 b 735 899 696 740 735 807 l 735 967 l 563 967 l 563 957 b 532 922 563 932 553 922 b 476 936 518 922 500 928 l 429 953 b 307 979 378 971 338 979 b 163 822 183 979 163 894 l 163 753 z m 303 0 l 303 361 b 446 481 303 451 331 481 b 596 353 560 481 596 450 l 596 0 l 857 0 l 857 449 b 579 714 857 600 768 714 b 300 488 392 714 315 604 l 286 488 l 286 700 l 42 700 l 42 0 z "},"ń":{"ha":893,"x_min":0,"x_max":0,"o":"m 590 778 l 871 958 l 493 958 l 307 778 z m 303 0 l 303 361 b 446 481 303 451 331 481 b 596 353 560 481 596 450 l 596 0 l 857 0 l 857 449 b 579 714 857 600 768 714 b 300 488 392 714 315 604 l 286 488 l 286 700 l 42 700 l 42 0 z "},"ņ":{"ha":893,"x_min":0,"x_max":0,"o":"m 303 0 l 303 361 b 446 481 303 451 331 481 b 596 353 560 481 596 450 l 596 0 l 857 0 l 857 449 b 579 714 857 600 768 714 b 300 488 392 714 315 604 l 286 488 l 286 700 l 42 700 l 42 0 z m 425 -278 l 631 -97 l 290 -97 l 160 -278 z "},"ň":{"ha":893,"x_min":0,"x_max":0,"o":"m 606 778 l 792 958 l 501 958 l 457 900 l 440 900 l 396 958 l 106 958 l 290 778 z m 303 0 l 303 361 b 446 481 303 451 331 481 b 596 353 560 481 596 450 l 596 0 l 857 0 l 857 449 b 579 714 857 600 768 714 b 300 488 392 714 315 604 l 286 488 l 286 700 l 42 700 l 42 0 z "},"o":{"ha":858,"x_min":0,"x_max":0,"o":"m 429 -14 b 838 350 672 -14 838 124 b 429 714 838 578 672 714 b 21 350 186 714 21 578 b 429 -14 21 124 186 -14 z m 429 217 b 279 350 311 217 279 249 b 429 485 279 451 311 485 b 579 350 547 485 579 451 b 429 217 579 249 547 217 z "},"ò":{"ha":858,"x_min":0,"x_max":0,"o":"m 567 778 l 382 958 l 4 958 l 285 778 z m 429 -14 b 838 350 672 -14 838 124 b 429 714 838 578 672 714 b 21 350 186 714 21 578 b 429 -14 21 124 186 -14 z m 429 217 b 279 350 311 217 279 249 b 429 485 279 451 311 485 b 579 350 547 485 579 451 b 429 217 579 249 547 217 z "},"ó":{"ha":858,"x_min":0,"x_max":0,"o":"m 571 778 l 851 958 l 474 958 l 288 778 z m 429 -14 b 838 350 672 -14 838 124 b 429 714 838 578 672 714 b 21 350 186 714 21 578 b 429 -14 21 124 186 -14 z m 429 217 b 279 350 311 217 279 249 b 429 485 279 451 311 485 b 579 350 547 485 579 451 b 429 217 579 249 547 217 z "},"ô":{"ha":858,"x_min":0,"x_max":0,"o":"m 365 778 l 421 836 l 438 836 l 492 778 l 772 778 l 586 958 l 271 958 l 86 778 z m 429 -14 b 838 350 672 -14 838 124 b 429 714 838 578 672 714 b 21 350 186 714 21 578 b 429 -14 21 124 186 -14 z m 429 217 b 279 350 311 217 279 249 b 429 485 279 451 311 485 b 579 350 547 485 579 451 b 429 217 579 249 547 217 z "},"õ":{"ha":858,"x_min":0,"x_max":0,"o":"m 317 753 l 317 775 b 340 800 317 788 321 800 b 392 788 351 800 368 796 l 456 767 b 582 740 496 753 539 740 b 715 899 676 740 715 807 l 715 967 l 543 967 l 543 957 b 513 922 543 932 533 922 b 457 936 499 922 481 928 l 410 953 b 288 979 358 971 318 979 b 143 822 164 979 143 894 l 143 753 z m 429 -14 b 838 350 672 -14 838 124 b 429 714 838 578 672 714 b 21 350 186 714 21 578 b 429 -14 21 124 186 -14 z m 429 217 b 279 350 311 217 279 249 b 429 485 279 451 311 485 b 579 350 547 485 579 451 b 429 217 579 249 547 217 z "},"ö":{"ha":858,"x_min":0,"x_max":0,"o":"m 717 778 l 717 971 l 469 971 l 469 778 z m 389 778 l 389 971 l 142 971 l 142 778 z m 429 -14 b 838 350 672 -14 838 124 b 429 714 838 578 672 714 b 21 350 186 714 21 578 b 429 -14 21 124 186 -14 z m 429 217 b 279 350 311 217 279 249 b 429 485 279 451 311 485 b 579 350 547 485 579 451 b 429 217 579 249 547 217 z "},"ō":{"ha":858,"x_min":0,"x_max":0,"o":"m 675 775 l 675 961 l 182 961 l 182 775 z m 429 -14 b 838 350 672 -14 838 124 b 429 714 838 578 672 714 b 21 350 186 714 21 578 b 429 -14 21 124 186 -14 z m 429 217 b 279 350 311 217 279 249 b 429 485 279 451 311 485 b 579 350 547 485 579 451 b 429 217 579 249 547 217 z "},"ŏ":{"ha":858,"x_min":0,"x_max":0,"o":"m 429 764 b 674 958 575 764 674 846 l 674 964 l 492 964 l 492 963 b 429 915 492 926 485 915 b 367 963 375 915 367 926 l 367 964 l 185 964 l 185 958 b 429 764 185 846 283 764 z m 429 -14 b 838 350 672 -14 838 124 b 429 714 838 578 672 714 b 21 350 186 714 21 578 b 429 -14 21 124 186 -14 z m 429 217 b 279 350 311 217 279 249 b 429 485 279 451 311 485 b 579 350 547 485 579 451 b 429 217 579 249 547 217 z "},"ő":{"ha":858,"x_min":0,"x_max":0,"o":"m 736 778 l 925 958 l 583 958 l 472 778 z m 331 778 l 519 958 l 176 958 l 67 778 z m 429 -14 b 838 350 672 -14 838 124 b 429 714 838 578 672 714 b 21 350 186 714 21 578 b 429 -14 21 124 186 -14 z m 429 217 b 279 350 311 217 279 249 b 429 485 279 451 311 485 b 579 350 547 485 579 451 b 429 217 579 249 547 217 z "},"p":{"ha":929,"x_min":0,"x_max":0,"o":"m 303 -236 l 303 181 l 317 181 b 581 -14 338 64 415 -14 b 901 350 786 -14 901 122 b 569 714 901 576 783 714 b 300 511 406 714 322 650 l 286 511 l 286 700 l 42 700 l 42 -236 z m 303 342 l 303 351 b 475 475 303 453 358 475 b 638 350 596 475 638 443 b 475 224 638 257 596 224 b 303 342 358 224 303 243 z "},"q":{"ha":929,"x_min":0,"x_max":0,"o":"m 349 -14 b 613 181 514 -14 592 64 l 626 181 l 626 -236 l 888 -236 l 888 700 l 643 700 l 643 511 l 629 511 b 360 714 607 650 524 714 b 28 350 146 714 28 576 b 349 -14 28 122 143 -14 z m 292 350 b 454 475 292 443 333 475 b 626 351 571 475 626 453 l 626 342 b 454 224 626 243 571 224 b 292 350 333 224 292 257 z "},"r":{"ha":760,"x_min":0,"x_max":0,"o":"m 303 0 l 303 418 b 394 494 303 474 324 494 b 485 415 463 494 485 474 l 485 333 l 746 333 l 746 472 b 531 714 746 613 685 714 b 300 517 392 714 319 632 l 286 517 l 286 700 l 42 700 l 42 0 z "},"ŕ":{"ha":760,"x_min":0,"x_max":0,"o":"m 535 778 l 815 958 l 438 958 l 251 778 z m 303 0 l 303 418 b 394 494 303 474 324 494 b 485 415 463 494 485 474 l 485 333 l 746 333 l 746 472 b 531 714 746 613 685 714 b 300 517 392 714 319 632 l 286 517 l 286 700 l 42 700 l 42 0 z "},"ŗ":{"ha":760,"x_min":0,"x_max":0,"o":"m 303 0 l 303 418 b 394 494 303 474 324 494 b 485 415 463 494 485 474 l 485 333 l 746 333 l 746 472 b 531 714 746 613 685 714 b 300 517 392 714 319 632 l 286 517 l 286 700 l 42 700 l 42 0 z m 133 -278 l 339 -97 l -1 -97 l -132 -278 z "},"ř":{"ha":760,"x_min":0,"x_max":0,"o":"m 550 778 l 736 958 l 446 958 l 401 900 l 385 900 l 340 958 l 50 958 l 235 778 z m 303 0 l 303 418 b 394 494 303 474 324 494 b 485 415 463 494 485 474 l 485 333 l 746 333 l 746 472 b 531 714 746 613 685 714 b 300 517 392 714 319 632 l 286 517 l 286 700 l 42 700 l 42 0 z "},"s":{"ha":801,"x_min":0,"x_max":0,"o":"m 418 -14 b 781 211 650 -14 781 81 b 511 419 781 329 715 397 l 372 435 b 279 472 290 443 279 453 b 375 510 279 499 290 510 b 494 457 481 510 494 493 l 494 449 l 756 449 l 756 454 b 383 714 756 626 626 714 b 22 483 121 714 22 607 b 244 282 22 365 100 297 l 447 260 b 524 225 513 253 524 247 b 419 192 524 201 510 192 b 300 235 325 192 300 196 l 300 249 l 39 249 l 39 243 b 418 -14 39 82 171 -14 z "},"ś":{"ha":801,"x_min":0,"x_max":0,"o":"m 543 778 l 824 958 l 446 958 l 260 778 z m 418 -14 b 781 211 650 -14 781 81 b 511 419 781 329 715 397 l 372 435 b 279 472 290 443 279 453 b 375 510 279 499 290 510 b 494 457 481 510 494 493 l 494 449 l 756 449 l 756 454 b 383 714 756 626 626 714 b 22 483 121 714 22 607 b 244 282 22 365 100 297 l 447 260 b 524 225 513 253 524 247 b 419 192 524 201 510 192 b 300 235 325 192 300 196 l 300 249 l 39 249 l 39 243 b 418 -14 39 82 171 -14 z "},"ŝ":{"ha":801,"x_min":0,"x_max":0,"o":"m 338 778 l 393 836 l 410 836 l 464 778 l 744 778 l 558 958 l 243 958 l 58 778 z m 418 -14 b 781 211 650 -14 781 81 b 511 419 781 329 715 397 l 372 435 b 279 472 290 443 279 453 b 375 510 279 499 290 510 b 494 457 481 510 494 493 l 494 449 l 756 449 l 756 454 b 383 714 756 626 626 714 b 22 483 121 714 22 607 b 244 282 22 365 100 297 l 447 260 b 524 225 513 253 524 247 b 419 192 524 201 510 192 b 300 235 325 192 300 196 l 300 249 l 39 249 l 39 243 b 418 -14 39 82 171 -14 z "},"ş":{"ha":801,"x_min":0,"x_max":0,"o":"m 475 -335 b 636 -190 581 -335 636 -278 b 475 -50 636 -106 581 -50 l 456 -50 l 456 -12 b 781 211 664 -3 781 88 b 511 419 781 329 715 397 l 372 435 b 279 472 290 443 279 453 b 375 510 279 499 290 510 b 494 457 481 510 494 493 l 494 449 l 756 449 l 756 454 b 383 714 756 626 626 714 b 22 483 121 714 22 607 b 244 282 22 365 100 297 l 447 260 b 524 225 513 253 524 247 b 419 192 524 201 510 192 b 300 235 325 192 300 196 l 300 249 l 39 249 l 39 243 b 324 -8 39 104 138 14 l 324 -182 l 479 -182 b 490 -192 488 -182 490 -185 b 479 -200 490 -197 488 -200 l 324 -200 l 324 -335 z "},"š":{"ha":801,"x_min":0,"x_max":0,"o":"m 558 778 l 744 958 l 454 958 l 410 900 l 393 900 l 349 958 l 58 958 l 243 778 z m 418 -14 b 781 211 650 -14 781 81 b 511 419 781 329 715 397 l 372 435 b 279 472 290 443 279 453 b 375 510 279 499 290 510 b 494 457 481 510 494 493 l 494 449 l 756 449 l 756 454 b 383 714 756 626 626 714 b 22 483 121 714 22 607 b 244 282 22 365 100 297 l 447 260 b 524 225 513 253 524 247 b 419 192 524 201 510 192 b 300 235 325 192 300 196 l 300 249 l 39 249 l 39 243 b 418 -14 39 82 171 -14 z "},"ș":{"ha":801,"x_min":0,"x_max":0,"o":"m 418 -14 b 781 211 650 -14 781 81 b 511 419 781 329 715 397 l 372 435 b 279 472 290 443 279 453 b 375 510 279 499 290 510 b 494 457 481 510 494 493 l 494 449 l 756 449 l 756 454 b 383 714 756 626 626 714 b 22 483 121 714 22 607 b 244 282 22 365 100 297 l 447 260 b 524 225 513 253 524 247 b 419 192 524 201 510 192 b 300 235 325 192 300 196 l 300 249 l 39 249 l 39 243 b 418 -14 39 82 171 -14 z m 378 -278 l 583 -97 l 243 -97 l 113 -278 z "},"t":{"ha":586,"x_min":0,"x_max":0,"o":"m 565 0 l 565 235 l 440 235 b 364 304 381 235 364 249 l 364 486 l 565 486 l 565 700 l 364 700 l 364 821 l 103 821 l 103 700 l 0 700 l 0 486 l 103 486 l 103 267 b 382 0 103 85 207 0 z "},"ț":{"ha":586,"x_min":0,"x_max":0,"o":"m 565 0 l 565 235 l 440 235 b 364 304 381 235 364 249 l 364 486 l 565 486 l 565 700 l 364 700 l 364 821 l 103 821 l 103 700 l 0 700 l 0 486 l 103 486 l 103 267 b 382 0 103 85 207 0 z m 360 -278 l 565 -97 l 225 -97 l 94 -278 z "},"ť":{"ha":504,"x_min":0,"x_max":0,"o":"m 475 764 b 642 928 582 764 642 817 l 642 1117 l 394 1117 l 394 936 l 504 936 l 504 925 b 468 890 504 897 493 890 l 404 890 l 404 764 z m 565 0 l 565 235 l 440 235 b 364 304 381 235 364 249 l 364 486 l 565 486 l 565 700 l 364 700 l 364 821 l 103 821 l 103 700 l 0 700 l 0 486 l 103 486 l 103 267 b 382 0 103 85 207 0 z "},"u":{"ha":907,"x_min":0,"x_max":0,"o":"m 329 -14 b 613 213 519 -14 597 96 l 626 213 l 626 0 l 871 0 l 871 700 l 610 700 l 610 339 b 460 219 610 249 581 219 b 303 347 340 219 303 250 l 303 700 l 42 700 l 42 251 b 329 -14 42 100 133 -14 z "},"ù":{"ha":907,"x_min":0,"x_max":0,"o":"m 593 778 l 408 958 l 31 958 l 311 778 z m 329 -14 b 613 213 519 -14 597 96 l 626 213 l 626 0 l 871 0 l 871 700 l 610 700 l 610 339 b 460 219 610 249 581 219 b 303 347 340 219 303 250 l 303 700 l 42 700 l 42 251 b 329 -14 42 100 133 -14 z "},"ú":{"ha":907,"x_min":0,"x_max":0,"o":"m 597 778 l 878 958 l 500 958 l 314 778 z m 329 -14 b 613 213 519 -14 597 96 l 626 213 l 626 0 l 871 0 l 871 700 l 610 700 l 610 339 b 460 219 610 249 581 219 b 303 347 340 219 303 250 l 303 700 l 42 700 l 42 251 b 329 -14 42 100 133 -14 z "},"û":{"ha":907,"x_min":0,"x_max":0,"o":"m 392 778 l 447 836 l 464 836 l 518 778 l 799 778 l 613 958 l 297 958 l 113 778 z m 329 -14 b 613 213 519 -14 597 96 l 626 213 l 626 0 l 871 0 l 871 700 l 610 700 l 610 339 b 460 219 610 249 581 219 b 303 347 340 219 303 250 l 303 700 l 42 700 l 42 251 b 329 -14 42 100 133 -14 z "},"ü":{"ha":907,"x_min":0,"x_max":0,"o":"m 743 778 l 743 971 l 496 971 l 496 778 z m 415 778 l 415 971 l 168 971 l 168 778 z m 329 -14 b 613 213 519 -14 597 96 l 626 213 l 626 0 l 871 0 l 871 700 l 610 700 l 610 339 b 460 219 610 249 581 219 b 303 347 340 219 303 250 l 303 700 l 42 700 l 42 251 b 329 -14 42 100 133 -14 z "},"ũ":{"ha":907,"x_min":0,"x_max":0,"o":"m 343 753 l 343 775 b 367 800 343 788 347 800 b 418 788 378 800 394 796 l 482 767 b 608 740 522 753 565 740 b 742 899 703 740 742 807 l 742 967 l 569 967 l 569 957 b 539 922 569 932 560 922 b 483 936 525 922 507 928 l 436 953 b 314 979 385 971 344 979 b 169 822 190 979 169 894 l 169 753 z m 329 -14 b 613 213 519 -14 597 96 l 626 213 l 626 0 l 871 0 l 871 700 l 610 700 l 610 339 b 460 219 610 249 581 219 b 303 347 340 219 303 250 l 303 700 l 42 700 l 42 251 b 329 -14 42 100 133 -14 z "},"ū":{"ha":907,"x_min":0,"x_max":0,"o":"m 701 775 l 701 961 l 208 961 l 208 775 z m 329 -14 b 613 213 519 -14 597 96 l 626 213 l 626 0 l 871 0 l 871 700 l 610 700 l 610 339 b 460 219 610 249 581 219 b 303 347 340 219 303 250 l 303 700 l 42 700 l 42 251 b 329 -14 42 100 133 -14 z "},"ŭ":{"ha":907,"x_min":0,"x_max":0,"o":"m 456 764 b 700 958 601 764 700 846 l 700 964 l 518 964 l 518 963 b 456 915 518 926 511 915 b 393 963 401 915 393 926 l 393 964 l 211 964 l 211 958 b 456 764 211 846 310 764 z m 329 -14 b 613 213 519 -14 597 96 l 626 213 l 626 0 l 871 0 l 871 700 l 610 700 l 610 339 b 460 219 610 249 581 219 b 303 347 340 219 303 250 l 303 700 l 42 700 l 42 251 b 329 -14 42 100 133 -14 z "},"ů":{"ha":907,"x_min":0,"x_max":0,"o":"m 456 756 b 603 878 543 756 603 804 b 456 1000 603 951 543 1000 b 308 878 368 1000 308 951 b 456 756 308 804 368 756 z m 456 854 b 415 878 421 854 415 863 b 456 901 415 893 421 901 b 496 878 490 901 496 893 b 456 854 496 863 490 854 z m 329 -14 b 613 213 519 -14 597 96 l 626 213 l 626 0 l 871 0 l 871 700 l 610 700 l 610 339 b 460 219 610 249 581 219 b 303 347 340 219 303 250 l 303 700 l 42 700 l 42 251 b 329 -14 42 100 133 -14 z "},"ű":{"ha":907,"x_min":0,"x_max":0,"o":"m 763 778 l 951 958 l 610 958 l 499 778 z m 357 778 l 546 958 l 203 958 l 93 778 z m 329 -14 b 613 213 519 -14 597 96 l 626 213 l 626 0 l 871 0 l 871 700 l 610 700 l 610 339 b 460 219 610 249 581 219 b 303 347 340 219 303 250 l 303 700 l 42 700 l 42 251 b 329 -14 42 100 133 -14 z "},"ų":{"ha":907,"x_min":0,"x_max":0,"o":"m 329 -14 b 613 213 519 -14 597 96 l 626 213 l 626 0 l 703 0 l 671 -33 b 601 -161 635 -72 601 -110 b 744 -260 601 -219 639 -260 l 883 -260 l 883 -107 l 808 -107 b 797 -99 800 -107 797 -104 b 808 -78 797 -93 801 -86 l 871 0 l 871 700 l 610 700 l 610 339 b 460 219 610 249 581 219 b 303 347 340 219 303 250 l 303 700 l 42 700 l 42 251 b 329 -14 42 100 133 -14 z "},"v":{"ha":933,"x_min":0,"x_max":0,"o":"m 626 0 l 940 700 l 654 700 l 478 254 l 460 254 l 285 700 l -7 700 l 304 0 z "},"w":{"ha":1304,"x_min":0,"x_max":0,"o":"m 496 0 l 588 281 l 640 490 l 658 490 l 710 281 l 800 0 l 1126 0 l 1311 700 l 1044 700 l 996 447 l 968 197 l 950 197 l 892 475 l 822 700 l 486 700 l 417 475 l 358 197 l 340 197 l 314 447 l 264 700 l -7 700 l 169 0 z "},"ŵ":{"ha":1304,"x_min":0,"x_max":0,"o":"m 588 778 l 643 836 l 660 836 l 714 778 l 994 778 l 808 958 l 493 958 l 308 778 z m 496 0 l 588 281 l 640 490 l 658 490 l 710 281 l 800 0 l 1126 0 l 1311 700 l 1044 700 l 996 447 l 968 197 l 950 197 l 892 475 l 822 700 l 486 700 l 417 475 l 358 197 l 340 197 l 314 447 l 264 700 l -7 700 l 169 0 z "},"ẁ":{"ha":1304,"x_min":0,"x_max":0,"o":"m 789 778 l 604 958 l 226 958 l 507 778 z m 496 0 l 588 281 l 640 490 l 658 490 l 710 281 l 800 0 l 1126 0 l 1311 700 l 1044 700 l 996 447 l 968 197 l 950 197 l 892 475 l 822 700 l 486 700 l 417 475 l 358 197 l 340 197 l 314 447 l 264 700 l -7 700 l 169 0 z "},"ẃ":{"ha":1304,"x_min":0,"x_max":0,"o":"m 793 778 l 1074 958 l 696 958 l 510 778 z m 496 0 l 588 281 l 640 490 l 658 490 l 710 281 l 800 0 l 1126 0 l 1311 700 l 1044 700 l 996 447 l 968 197 l 950 197 l 892 475 l 822 700 l 486 700 l 417 475 l 358 197 l 340 197 l 314 447 l 264 700 l -7 700 l 169 0 z "},"ẅ":{"ha":1304,"x_min":0,"x_max":0,"o":"m 939 778 l 939 971 l 692 971 l 692 778 z m 611 778 l 611 971 l 364 971 l 364 778 z m 496 0 l 588 281 l 640 490 l 658 490 l 710 281 l 800 0 l 1126 0 l 1311 700 l 1044 700 l 996 447 l 968 197 l 950 197 l 892 475 l 822 700 l 486 700 l 417 475 l 358 197 l 340 197 l 314 447 l 264 700 l -7 700 l 169 0 z "},"x":{"ha":901,"x_min":0,"x_max":0,"o":"m 301 0 l 439 206 l 453 206 l 596 0 l 915 0 l 654 343 l 654 357 l 915 700 l 600 700 l 463 489 l 449 489 l 306 700 l -14 700 l 247 353 l 247 339 l -14 0 z "},"y":{"ha":900,"x_min":0,"x_max":0,"o":"m 196 -236 b 582 -28 400 -236 507 -193 l 914 700 l 622 700 l 518 428 l 472 264 l 454 264 l 404 425 l 283 700 l -14 700 l 321 8 b 272 0 310 3 293 0 l 69 0 l 69 -236 z "},"ý":{"ha":900,"x_min":0,"x_max":0,"o":"m 592 778 l 872 958 l 494 958 l 308 778 z m 196 -236 b 582 -28 400 -236 507 -193 l 914 700 l 622 700 l 518 428 l 472 264 l 454 264 l 404 425 l 283 700 l -14 700 l 321 8 b 272 0 310 3 293 0 l 69 0 l 69 -236 z "},"ÿ":{"ha":900,"x_min":0,"x_max":0,"o":"m 738 778 l 738 971 l 490 971 l 490 778 z m 410 778 l 410 971 l 163 971 l 163 778 z m 196 -236 b 582 -28 400 -236 507 -193 l 914 700 l 622 700 l 518 428 l 472 264 l 454 264 l 404 425 l 283 700 l -14 700 l 321 8 b 272 0 310 3 293 0 l 69 0 l 69 -236 z "},"ŷ":{"ha":900,"x_min":0,"x_max":0,"o":"m 386 778 l 442 836 l 458 836 l 513 778 l 793 778 l 607 958 l 292 958 l 107 778 z m 196 -236 b 582 -28 400 -236 507 -193 l 914 700 l 622 700 l 518 428 l 472 264 l 454 264 l 404 425 l 283 700 l -14 700 l 321 8 b 272 0 310 3 293 0 l 69 0 l 69 -236 z "},"ỳ":{"ha":900,"x_min":0,"x_max":0,"o":"m 588 778 l 403 958 l 25 958 l 306 778 z m 196 -236 b 582 -28 400 -236 507 -193 l 914 700 l 622 700 l 518 428 l 472 264 l 454 264 l 404 425 l 283 700 l -14 700 l 321 8 b 272 0 310 3 293 0 l 69 0 l 69 -236 z "},"z":{"ha":803,"x_min":0,"x_max":0,"o":"m 782 0 l 782 228 l 486 228 l 350 214 l 350 232 l 486 301 l 761 478 l 761 700 l 42 700 l 42 472 l 274 472 l 419 483 l 419 465 l 274 392 l 21 222 l 21 0 z "},"ź":{"ha":803,"x_min":0,"x_max":0,"o":"m 543 778 l 824 958 l 446 958 l 260 778 z m 782 0 l 782 228 l 486 228 l 350 214 l 350 232 l 486 301 l 761 478 l 761 700 l 42 700 l 42 472 l 274 472 l 419 483 l 419 465 l 274 392 l 21 222 l 21 0 z "},"ż":{"ha":803,"x_min":0,"x_max":0,"o":"m 532 778 l 532 971 l 271 971 l 271 778 z m 782 0 l 782 228 l 486 228 l 350 214 l 350 232 l 486 301 l 761 478 l 761 700 l 42 700 l 42 472 l 274 472 l 419 483 l 419 465 l 274 392 l 21 222 l 21 0 z "},"ž":{"ha":803,"x_min":0,"x_max":0,"o":"m 558 778 l 744 958 l 454 958 l 410 900 l 393 900 l 349 958 l 58 958 l 243 778 z m 782 0 l 782 228 l 486 228 l 350 214 l 350 232 l 486 301 l 761 478 l 761 700 l 42 700 l 42 472 l 274 472 l 419 483 l 419 465 l 274 392 l 21 222 l 21 0 z "},"ª":{"ha":317,"x_min":0,"x_max":0,"o":"m 113 728 b 203 775 167 728 194 742 l 207 775 l 207 732 l 289 732 l 289 840 b 168 944 289 908 250 944 b 36 856 83 944 36 908 l 36 853 l 122 853 l 122 854 b 163 876 122 874 135 876 b 201 851 189 876 200 872 l 108 842 b 28 785 51 836 28 817 b 113 728 28 747 60 728 z m 114 790 b 129 800 114 797 119 799 l 204 810 b 140 781 204 786 176 781 b 114 790 122 781 114 782 z "},"º":{"ha":306,"x_min":0,"x_max":0,"o":"m 153 728 b 278 836 231 728 278 768 b 153 944 278 904 231 944 b 28 836 75 944 28 904 b 153 728 28 768 75 728 z m 153 806 b 115 836 124 806 115 814 b 153 867 115 858 124 867 b 190 836 182 867 190 858 b 153 806 190 814 182 806 z "},"ß":{"ha":992,"x_min":0,"x_max":0,"o":"m 326 0 l 326 588 b 513 696 326 669 343 696 b 674 629 653 696 674 675 b 606 578 674 589 658 578 l 382 578 l 382 364 l 632 364 b 714 300 696 364 714 351 b 632 235 714 247 694 235 l 382 235 l 382 0 l 665 0 b 978 244 888 0 978 96 b 703 481 978 382 889 474 l 703 494 b 935 697 872 501 935 578 b 531 944 935 838 807 944 b 69 585 206 944 69 804 l 69 0 z "},"æ":{"ha":1356,"x_min":0,"x_max":0,"o":"m 276 -14 b 581 147 440 -14 546 46 l 596 147 b 953 -14 661 33 790 -14 b 1338 251 1189 -14 1338 96 l 1338 268 l 1076 268 l 1076 253 b 943 193 1076 211 1049 193 b 790 301 832 193 794 217 l 1339 301 b 1343 368 1342 326 1343 344 b 947 714 1343 593 1189 714 b 689 640 846 714 757 688 b 428 714 629 688 542 714 b 35 408 190 714 35 594 l 35 399 l 296 399 l 296 411 b 424 486 296 469 326 486 b 549 404 518 486 549 475 l 549 396 l 247 367 b 21 178 89 351 21 279 b 276 -14 21 58 113 -14 z m 942 514 b 1090 433 1039 514 1081 493 l 794 433 b 942 514 806 493 846 514 z m 283 194 b 317 221 283 210 293 218 l 557 247 b 346 168 543 183 483 168 b 283 194 306 168 283 172 z "},"ǽ":{"ha":1356,"x_min":0,"x_max":0,"o":"m 824 778 l 1104 958 l 726 958 l 540 778 z m 276 -14 b 581 147 440 -14 546 46 l 596 147 b 953 -14 661 33 790 -14 b 1338 251 1189 -14 1338 96 l 1338 268 l 1076 268 l 1076 253 b 943 193 1076 211 1049 193 b 790 301 832 193 794 217 l 1339 301 b 1343 368 1342 326 1343 344 b 947 714 1343 593 1189 714 b 689 640 846 714 757 688 b 428 714 629 688 542 714 b 35 408 190 714 35 594 l 35 399 l 296 399 l 296 411 b 424 486 296 469 326 486 b 549 404 518 486 549 475 l 549 396 l 247 367 b 21 178 89 351 21 279 b 276 -14 21 58 113 -14 z m 942 514 b 1090 433 1039 514 1081 493 l 794 433 b 942 514 806 493 846 514 z m 283 194 b 317 221 283 210 293 218 l 557 247 b 346 168 543 183 483 168 b 283 194 306 168 283 172 z "},"ð":{"ha":972,"x_min":0,"x_max":0,"o":"m 457 -14 b 944 382 782 -14 944 133 b 817 757 944 532 892 660 l 921 775 l 897 890 l 718 860 b 614 931 685 888 649 911 l 261 931 b 422 808 315 893 371 851 l 272 782 l 296 667 l 529 707 b 661 468 603 628 654 546 l 644 468 b 368 624 611 560 528 624 b 28 325 161 624 28 532 b 457 -14 28 119 167 -14 z m 472 240 b 296 322 332 240 296 258 b 472 408 296 392 328 408 b 660 321 632 408 660 393 b 472 240 660 256 624 240 z "},"ø":{"ha":858,"x_min":0,"x_max":0,"o":"m 429 -14 b 838 350 672 -14 838 124 b 775 561 838 433 815 504 l 851 628 l 760 729 l 674 654 b 429 714 607 693 524 714 b 21 350 186 714 21 578 b 83 140 21 267 43 196 l 6 72 l 97 -29 l 185 47 b 429 -14 250 7 333 -14 z m 279 350 b 429 485 279 451 311 485 b 476 482 447 485 463 483 l 281 313 b 279 350 279 324 279 336 z m 429 217 b 382 219 411 217 396 218 l 578 389 b 579 350 579 378 579 364 b 429 217 579 249 547 217 z "},"ǿ":{"ha":858,"x_min":0,"x_max":0,"o":"m 571 778 l 851 958 l 474 958 l 288 778 z m 429 -14 b 838 350 672 -14 838 124 b 775 561 838 433 815 504 l 851 628 l 760 729 l 674 654 b 429 714 607 693 524 714 b 21 350 186 714 21 578 b 83 140 21 267 43 196 l 6 72 l 97 -29 l 185 47 b 429 -14 250 7 333 -14 z m 279 350 b 429 485 279 451 311 485 b 476 482 447 485 463 483 l 281 313 b 279 350 279 324 279 336 z m 429 217 b 382 219 411 217 396 218 l 578 389 b 579 350 579 378 579 364 b 429 217 579 249 547 217 z "},"þ":{"ha":929,"x_min":0,"x_max":0,"o":"m 303 -236 l 303 181 l 317 181 b 581 -14 338 64 415 -14 b 901 350 786 -14 901 122 b 581 714 901 578 786 714 b 317 519 415 714 338 636 l 303 519 l 303 931 l 42 931 l 42 -236 z m 303 342 l 303 358 b 475 476 303 457 358 476 b 638 350 596 476 638 443 b 475 224 638 257 596 224 b 303 342 358 224 303 243 z "},"đ":{"ha":993,"x_min":0,"x_max":0,"o":"m 360 -14 b 629 189 524 -14 607 64 l 643 189 l 643 0 l 888 0 l 888 658 l 999 658 l 999 853 l 888 853 l 888 931 l 626 931 l 626 853 l 489 853 l 489 658 l 626 658 l 626 464 l 613 464 b 349 658 592 581 504 658 b 28 322 143 658 28 532 b 360 -14 28 113 146 -14 z m 292 322 b 454 421 292 394 333 421 b 626 331 571 421 626 406 l 626 321 b 454 225 626 242 571 225 b 292 322 333 225 292 250 z "},"ħ":{"ha":981,"x_min":0,"x_max":0,"o":"m 376 0 l 376 306 b 526 425 376 396 406 425 b 683 297 646 425 683 394 l 683 0 l 944 0 l 944 385 b 669 658 944 540 856 658 b 390 432 490 658 413 550 l 376 432 l 376 658 l 510 658 l 510 853 l 376 853 l 376 931 l 115 931 l 115 853 l 0 853 l 0 658 l 115 658 l 115 0 z "},"ĳ":{"ha":689,"x_min":0,"x_max":0,"o":"m 303 764 l 303 931 l 42 931 l 42 764 z m 647 764 l 647 931 l 386 931 l 386 764 z m 303 0 l 303 700 l 42 700 l 42 0 z m 333 -236 b 647 44 533 -236 647 -176 l 647 700 l 386 700 l 386 6 b 335 -44 386 -32 369 -44 l 308 -44 l 308 -236 z "},"ŀ":{"ha":606,"x_min":0,"x_max":0,"o":"m 303 0 l 303 931 l 42 931 l 42 0 z m 606 369 l 606 563 l 344 563 l 344 369 z "},"ł":{"ha":558,"x_min":0,"x_max":0,"o":"m 410 0 l 410 490 l 572 563 l 501 708 l 410 668 l 410 931 l 149 931 l 149 553 l -14 481 l 57 335 l 149 375 l 149 0 z "},"ŋ":{"ha":893,"x_min":0,"x_max":0,"o":"m 303 0 l 303 361 b 446 481 303 451 331 481 b 596 353 560 481 596 450 l 596 6 b 544 -44 596 -32 579 -44 l 518 -44 l 518 -236 l 543 -236 b 857 -4 731 -236 857 -182 l 857 449 b 579 714 857 600 768 714 b 300 488 392 714 315 604 l 286 488 l 286 700 l 42 700 l 42 0 z "},"œ":{"ha":1418,"x_min":0,"x_max":0,"o":"m 429 -14 b 708 69 542 -14 638 15 b 1000 -14 779 11 881 -14 b 1385 251 1236 -14 1385 96 l 1385 268 l 1124 268 l 1124 253 b 990 193 1124 211 1096 193 b 838 301 879 193 842 217 l 1386 301 b 1390 368 1389 326 1390 344 b 994 714 1390 593 1236 714 b 717 625 882 714 786 682 b 429 714 644 682 546 714 b 21 350 186 714 21 578 b 429 -14 21 124 186 -14 z m 989 514 b 1138 433 1086 514 1128 493 l 842 433 b 989 514 853 493 893 514 z m 429 217 b 279 350 311 217 279 249 b 429 485 279 451 311 485 b 579 350 547 485 579 451 b 429 217 579 249 547 217 z "},"ŧ":{"ha":586,"x_min":0,"x_max":0,"o":"m 565 0 l 565 235 l 440 235 b 365 282 390 235 369 244 l 565 282 l 565 467 l 364 467 l 364 514 l 565 514 l 565 700 l 364 700 l 364 821 l 103 821 l 103 700 l 0 700 l 0 514 l 103 514 l 103 467 l 0 467 l 0 282 l 103 282 l 103 267 b 382 0 103 85 207 0 z "},"ƒ":{"ha":797,"x_min":0,"x_max":0,"o":"m 64 -236 b 488 108 326 -236 440 -153 l 529 349 l 708 349 l 750 582 l 569 582 l 572 594 b 722 696 589 688 607 696 l 771 696 l 811 931 l 771 931 b 310 586 490 931 353 828 l 308 582 l 167 582 l 125 349 l 268 349 l 225 100 b 76 -1 208 7 192 -1 l 26 -1 l -14 -236 z "},"¼":{"ha":1174,"x_min":0,"x_max":0,"o":"m 374 465 l 374 931 l 201 931 b 82 874 171 883 131 874 l 57 874 l 57 733 l 193 733 l 193 465 z m 293 0 l 1083 931 l 832 931 l 42 0 z m 1056 0 l 1056 88 l 1132 88 l 1132 247 l 1056 247 l 1056 465 l 840 465 l 613 231 l 613 88 l 875 88 l 875 0 z m 810 247 l 810 261 l 861 315 l 875 315 l 875 247 z "},"½":{"ha":1214,"x_min":0,"x_max":0,"o":"m 374 465 l 374 931 l 201 931 b 82 874 171 883 131 874 l 57 874 l 57 733 l 193 733 l 193 465 z m 293 0 l 1083 931 l 832 931 l 42 0 z m 1157 0 l 1157 153 l 1090 153 l 869 125 b 868 136 869 126 868 135 l 1013 167 b 1172 310 1124 189 1172 229 b 944 472 1172 407 1096 472 b 686 286 767 472 686 385 l 686 265 l 865 265 l 865 279 b 932 318 865 311 881 318 b 990 297 983 318 990 313 b 961 272 990 283 983 279 l 815 228 b 694 75 743 206 694 164 l 694 0 z "},"¾":{"ha":1268,"x_min":0,"x_max":0,"o":"m 303 465 b 543 604 453 465 543 510 b 413 714 543 674 490 704 l 413 721 b 524 822 492 731 524 767 b 299 944 524 897 449 944 b 42 775 136 944 42 875 l 42 771 l 222 771 l 222 775 b 283 799 222 792 228 799 b 343 779 336 799 343 793 b 315 763 343 767 338 763 l 236 763 l 236 657 l 333 657 b 360 639 353 657 360 651 b 290 618 360 619 351 618 b 222 644 231 618 222 621 l 222 653 l 42 653 l 42 638 b 303 465 42 526 126 465 z m 399 0 l 1189 931 l 938 931 l 147 0 z m 1150 0 l 1150 88 l 1226 88 l 1226 247 l 1150 247 l 1150 465 l 935 465 l 707 231 l 707 88 l 969 88 l 969 0 z m 904 247 l 904 261 l 956 315 l 969 315 l 969 247 z "},"_":{"ha":528,"x_min":0,"x_max":0,"o":"m 514 -185 l 514 0 l 14 0 l 14 -185 z "},"-":{"ha":668,"x_min":0,"x_max":0,"o":"m 626 301 l 626 524 l 42 524 l 42 301 z "},"–":{"ha":869,"x_min":0,"x_max":0,"o":"m 828 301 l 828 524 l 42 524 l 42 301 z "},"—":{"ha":1539,"x_min":0,"x_max":0,"o":"m 1497 301 l 1497 524 l 42 524 l 42 301 z "},"(":{"ha":485,"x_min":0,"x_max":0,"o":"m 471 21 b 317 465 338 206 317 281 b 471 910 317 650 338 725 l 339 1031 b 28 465 193 904 28 722 b 339 -100 28 208 193 26 z "},"[":{"ha":454,"x_min":0,"x_max":0,"o":"m 440 -83 l 440 131 l 283 131 l 283 800 l 440 800 l 440 1014 l 42 1014 l 42 -83 z "},"{":{"ha":526,"x_min":0,"x_max":0,"o":"m 499 -83 l 499 171 l 450 171 b 393 225 410 171 393 188 l 393 290 b 217 457 393 414 321 457 l 217 474 b 393 640 321 474 393 517 l 393 706 b 450 760 393 743 410 760 l 499 760 l 499 1014 l 457 1014 b 153 744 251 1014 153 904 l 153 661 b 67 588 153 607 132 588 l 28 588 l 28 343 l 67 343 b 153 269 132 343 153 324 l 153 186 b 457 -83 153 26 251 -83 z "},"‚":{"ha":422,"x_min":0,"x_max":0,"o":"m 150 -231 b 381 -18 296 -231 381 -161 l 381 267 l 42 267 l 42 0 l 190 0 l 190 -19 b 142 -69 190 -60 175 -69 l 54 -69 l 54 -231 z "},"„":{"ha":831,"x_min":0,"x_max":0,"o":"m 150 -231 b 381 -18 296 -231 381 -161 l 381 267 l 42 267 l 42 0 l 190 0 l 190 -19 b 142 -69 190 -60 175 -69 l 54 -69 l 54 -231 z m 558 -231 b 789 -18 704 -231 789 -161 l 789 267 l 450 267 l 450 0 l 599 0 l 599 -19 b 550 -69 599 -60 583 -69 l 463 -69 l 463 -231 z "},")":{"ha":546,"x_min":0,"x_max":0,"o":"m 56 910 b 210 465 189 725 210 650 b 56 21 210 281 189 206 l 188 -100 b 499 465 333 26 499 208 b 188 1031 499 722 333 904 z "},"]":{"ha":489,"x_min":0,"x_max":0,"o":"m 21 131 l 21 -83 l 419 -83 l 419 1014 l 21 1014 l 21 800 l 178 800 l 178 131 z "},"}":{"ha":533,"x_min":0,"x_max":0,"o":"m 35 1014 l 35 760 l 83 760 b 140 706 124 760 140 743 l 140 640 b 317 474 140 517 213 474 l 317 457 b 140 290 213 457 140 414 l 140 225 b 83 171 140 188 124 171 l 35 171 l 35 -83 l 76 -83 b 381 186 282 -83 381 26 l 381 269 b 467 343 381 324 401 343 l 506 343 l 506 588 l 467 588 b 381 661 401 588 381 607 l 381 744 b 76 1014 381 904 282 1014 z "},"‘":{"ha":422,"x_min":0,"x_max":0,"o":"m 272 931 b 42 718 126 931 42 861 l 42 433 l 381 433 l 381 700 l 232 700 l 232 719 b 281 769 232 760 247 769 l 368 769 l 368 931 z "},"“":{"ha":831,"x_min":0,"x_max":0,"o":"m 272 931 b 42 718 126 931 42 861 l 42 433 l 381 433 l 381 700 l 232 700 l 232 719 b 281 769 232 760 247 769 l 368 769 l 368 931 z m 681 931 b 450 718 535 931 450 861 l 450 433 l 789 433 l 789 700 l 640 700 l 640 719 b 689 769 640 760 656 769 l 776 769 l 776 931 z "},"‹":{"ha":361,"x_min":0,"x_max":0,"o":"m 42 569 l 42 278 l 319 97 l 319 364 l 215 414 l 215 433 l 319 483 l 319 750 z "},"’":{"ha":422,"x_min":0,"x_max":0,"o":"m 150 433 b 381 646 296 433 381 503 l 381 931 l 42 931 l 42 664 l 190 664 l 190 644 b 142 594 190 604 175 594 l 54 594 l 54 433 z "},"”":{"ha":831,"x_min":0,"x_max":0,"o":"m 558 433 b 789 646 704 433 789 503 l 789 931 l 450 931 l 450 664 l 599 664 l 599 644 b 550 594 599 604 583 594 l 463 594 l 463 433 z m 150 433 b 381 646 296 433 381 503 l 381 931 l 42 931 l 42 664 l 190 664 l 190 644 b 142 594 190 604 175 594 l 54 594 l 54 433 z "},"›":{"ha":361,"x_min":0,"x_max":0,"o":"m 319 278 l 319 569 l 42 750 l 42 483 l 146 433 l 146 414 l 42 364 l 42 97 z "},"!":{"ha":489,"x_min":0,"x_max":0,"o":"m 378 306 b 414 833 378 399 414 726 l 414 931 l 75 931 l 75 833 b 111 306 75 726 111 400 z m 393 0 l 393 246 l 94 246 l 94 0 z "},"\"":{"ha":688,"x_min":0,"x_max":0,"o":"m 606 486 l 660 706 l 660 931 l 389 931 l 389 706 l 442 486 z m 246 486 l 299 706 l 299 931 l 28 931 l 28 706 l 82 486 z "},"#":{"ha":1224,"x_min":0,"x_max":0,"o":"m 349 0 l 415 165 l 568 165 l 501 0 l 756 0 l 822 165 l 1114 165 l 1114 399 l 915 399 l 954 496 l 1196 496 l 1196 729 l 1047 729 l 1128 931 l 874 931 l 793 729 l 640 729 l 721 931 l 467 931 l 386 729 l 108 729 l 108 496 l 293 496 l 254 399 l 28 399 l 28 165 l 161 165 l 94 0 z m 542 501 l 710 501 l 667 394 l 499 394 z "},"%":{"ha":1143,"x_min":0,"x_max":0,"o":"m 265 482 b 517 714 419 482 517 567 b 265 947 517 861 419 947 b 14 714 111 947 14 861 b 265 482 14 567 111 482 z m 303 0 l 1093 931 l 842 931 l 51 0 z m 265 649 b 196 714 211 649 196 660 b 265 782 196 768 211 782 b 335 714 319 782 335 768 b 265 649 335 660 319 649 z m 878 -15 b 1129 217 1032 -15 1129 69 b 878 450 1129 364 1032 450 b 626 217 724 450 626 364 b 878 -15 626 69 724 -15 z m 878 151 b 808 217 824 151 808 163 b 878 285 808 271 824 285 b 947 217 932 285 947 271 b 878 151 947 163 932 151 z "},"&":{"ha":1074,"x_min":0,"x_max":0,"o":"m 472 -14 b 911 344 813 -14 911 126 l 911 368 l 1046 368 l 1046 582 l 911 582 l 911 700 l 654 700 l 654 582 l 413 582 b 332 646 361 582 332 589 b 419 713 332 706 360 713 l 603 713 l 603 950 l 457 950 b 71 700 213 950 71 876 b 261 503 71 597 133 514 l 261 485 b 28 261 124 475 28 404 b 472 -14 28 68 188 -14 z m 482 224 b 293 296 325 224 293 240 b 378 368 293 357 325 368 l 654 368 l 654 331 b 482 224 654 232 633 224 z "},"'":{"ha":326,"x_min":0,"x_max":0,"o":"m 246 486 l 299 706 l 299 931 l 28 931 l 28 706 l 82 486 z "},"*":{"ha":569,"x_min":0,"x_max":0,"o":"m 276 547 l 293 547 l 358 435 l 508 543 l 422 643 l 428 657 l 556 688 l 501 861 l 376 810 l 365 819 l 376 950 l 193 950 l 204 819 l 193 810 l 69 863 l 14 689 l 139 657 l 143 643 l 58 543 l 207 436 z "},",":{"ha":422,"x_min":0,"x_max":0,"o":"m 150 -231 b 381 -18 296 -231 381 -161 l 381 267 l 42 267 l 42 0 l 190 0 l 190 -19 b 142 -69 190 -60 175 -69 l 54 -69 l 54 -231 z "},".":{"ha":422,"x_min":0,"x_max":0,"o":"m 381 0 l 381 267 l 42 267 l 42 0 z "},"/":{"ha":714,"x_min":0,"x_max":0,"o":"m 251 -28 l 751 958 l 472 958 l -28 -28 z "},":":{"ha":422,"x_min":0,"x_max":0,"o":"m 381 435 l 381 701 l 42 701 l 42 435 z m 381 0 l 381 267 l 42 267 l 42 0 z "},";":{"ha":422,"x_min":0,"x_max":0,"o":"m 381 435 l 381 701 l 42 701 l 42 435 z m 150 -231 b 381 -18 296 -231 381 -161 l 381 267 l 42 267 l 42 0 l 190 0 l 190 -19 b 142 -69 190 -60 175 -69 l 54 -69 l 54 -231 z "},"?":{"ha":906,"x_min":0,"x_max":0,"o":"m 529 310 l 529 317 b 585 385 529 346 535 365 l 689 424 b 878 665 776 457 878 513 b 478 944 878 821 767 944 b 14 586 140 944 14 775 l 14 544 l 271 544 l 271 611 b 458 707 271 676 310 707 b 617 656 603 707 617 685 b 540 593 617 625 594 613 l 443 557 b 268 361 356 525 268 478 l 268 310 z m 549 0 l 549 246 l 250 246 l 250 0 z "},"@":{"ha":1279,"x_min":0,"x_max":0,"o":"m 533 57 b 689 185 636 57 678 125 l 704 185 b 956 57 733 108 819 57 b 1251 415 1133 57 1251 189 b 671 915 1251 714 1047 915 b 28 335 274 915 28 686 b 565 -207 28 -10 229 -207 b 847 -158 685 -207 763 -187 l 807 14 b 594 -12 756 0 678 -12 b 258 335 338 -12 258 64 b 656 701 258 619 344 701 b 1033 393 938 701 1033 631 b 975 249 1033 268 1022 249 b 935 292 947 249 935 261 l 935 611 l 707 611 l 707 493 l 693 493 b 538 622 685 572 626 622 b 321 340 417 622 321 536 b 533 57 321 129 421 57 z m 561 340 b 628 447 561 422 576 447 b 693 367 681 447 693 425 l 693 314 b 628 232 693 253 681 232 b 561 340 576 232 561 258 z "},"\\":{"ha":724,"x_min":0,"x_max":0,"o":"m 751 -28 l 251 958 l -28 958 l 472 -28 z "},"¡":{"ha":422,"x_min":0,"x_max":0,"o":"m 63 694 l 63 449 l 361 449 l 361 694 z m 78 389 b 42 -139 78 296 42 -32 l 42 -236 l 381 -236 l 381 -139 b 344 389 381 -32 344 294 z "},"·":{"ha":422,"x_min":0,"x_max":0,"o":"m 381 347 l 381 614 l 42 614 l 42 347 z "},"¿":{"ha":906,"x_min":0,"x_max":0,"o":"m 357 694 l 357 449 l 656 449 l 656 694 z m 376 385 l 376 378 b 321 310 376 349 371 329 l 217 271 b 28 29 129 238 28 182 b 428 -250 28 -126 139 -250 b 892 108 765 -250 892 -81 l 892 150 l 635 150 l 635 83 b 447 -12 635 18 596 -12 b 289 39 303 -12 289 10 b 365 101 289 69 311 82 l 463 138 b 638 333 550 169 638 217 l 638 385 z "},"†":{"ha":778,"x_min":0,"x_max":0,"o":"m 518 0 l 518 508 l 750 508 l 750 722 l 518 722 l 518 931 l 258 931 l 258 722 l 28 722 l 28 508 l 258 508 l 258 0 z "},"‡":{"ha":778,"x_min":0,"x_max":0,"o":"m 518 0 l 518 208 l 750 208 l 750 424 l 518 424 l 518 508 l 750 508 l 750 722 l 518 722 l 518 931 l 258 931 l 258 722 l 28 722 l 28 508 l 258 508 l 258 424 l 28 424 l 28 208 l 258 208 l 258 0 z "},"•":{"ha":513,"x_min":0,"x_max":0,"o":"m 256 236 b 485 465 382 236 485 322 b 256 694 485 608 382 694 b 28 465 131 694 28 608 b 256 236 28 322 131 236 z "},"…":{"ha":1267,"x_min":0,"x_max":0,"o":"m 381 0 l 381 267 l 42 267 l 42 0 z m 803 0 l 803 267 l 464 267 l 464 0 z m 1225 0 l 1225 267 l 886 267 l 886 0 z "},"‰":{"ha":1685,"x_min":0,"x_max":0,"o":"m 265 482 b 517 714 419 482 517 567 b 265 947 517 861 419 947 b 14 714 111 947 14 861 b 265 482 14 567 111 482 z m 303 0 l 1093 931 l 842 931 l 51 0 z m 265 649 b 196 714 211 649 196 660 b 265 782 196 768 211 782 b 335 714 319 782 335 768 b 265 649 335 660 319 649 z m 1419 -15 b 1671 217 1574 -15 1671 69 b 1419 450 1671 364 1574 450 b 1168 217 1265 450 1168 364 b 1419 -15 1168 69 1265 -15 z m 878 -15 b 1129 217 1032 -15 1129 69 b 878 450 1129 364 1032 450 b 626 217 724 450 626 364 b 878 -15 626 69 724 -15 z m 1419 151 b 1350 217 1365 151 1350 163 b 1419 285 1350 271 1365 285 b 1489 217 1474 285 1489 271 b 1419 151 1489 163 1474 151 z m 878 151 b 808 217 824 151 808 163 b 878 285 808 271 824 285 b 947 217 932 285 947 271 b 878 151 947 163 932 151 z "},"+":{"ha":742,"x_min":0,"x_max":0,"o":"m 482 136 l 482 358 l 700 358 l 700 572 l 482 572 l 482 794 l 260 794 l 260 572 l 42 572 l 42 358 l 260 358 l 260 136 z "},"<":{"ha":742,"x_min":0,"x_max":0,"o":"m 36 622 l 36 308 l 694 136 l 694 376 l 271 457 l 271 474 l 694 554 l 694 794 z "},"=":{"ha":742,"x_min":0,"x_max":0,"o":"m 701 518 l 701 732 l 42 732 l 42 518 z m 700 196 l 700 410 l 42 410 l 42 196 z "},">":{"ha":742,"x_min":0,"x_max":0,"o":"m 700 308 l 700 622 l 42 794 l 42 554 l 465 474 l 465 457 l 42 376 l 42 136 z "},"|":{"ha":324,"x_min":0,"x_max":0,"o":"m 282 -139 l 282 1069 l 42 1069 l 42 -139 z "},"~":{"ha":808,"x_min":0,"x_max":0,"o":"m 260 329 l 260 340 b 290 379 260 360 261 379 b 335 371 301 379 319 375 l 449 344 b 601 321 501 332 547 321 b 767 508 731 321 767 401 l 767 583 l 550 583 l 550 571 b 526 540 550 546 543 540 b 449 554 511 540 485 546 l 331 583 b 226 599 299 592 263 599 b 42 393 56 599 42 475 l 42 329 z "},"±":{"ha":743,"x_min":0,"x_max":0,"o":"m 700 -19 l 700 194 l 482 194 l 482 358 l 701 358 l 701 572 l 482 572 l 482 794 l 261 794 l 261 572 l 42 572 l 42 358 l 261 358 l 261 194 l 42 194 l 42 -19 z "},"×":{"ha":725,"x_min":0,"x_max":0,"o":"m 683 301 l 517 468 l 682 633 l 531 785 l 365 619 l 197 786 l 42 629 l 208 463 l 43 297 l 194 146 l 360 311 l 526 144 z "},"÷":{"ha":742,"x_min":0,"x_max":0,"o":"m 515 656 l 515 888 l 239 888 l 239 656 z m 706 358 l 706 572 l 47 572 l 47 358 z m 515 43 l 515 275 l 239 275 l 239 43 z "},"⁄":{"ha":394,"x_min":0,"x_max":0,"o":"m -71 0 l 719 931 l 468 931 l -322 0 z "},"−":{"ha":742,"x_min":0,"x_max":0,"o":"m 700 358 l 700 572 l 42 572 l 42 358 z "},"≈":{"ha":807,"x_min":0,"x_max":0,"o":"m 260 210 l 260 215 b 294 251 260 236 265 251 b 333 246 304 251 317 250 l 436 221 b 600 196 489 208 540 196 b 765 397 729 196 765 290 l 765 457 l 671 457 l 671 471 b 765 651 743 501 765 556 l 765 711 l 549 711 l 549 706 b 518 668 549 685 547 668 b 475 675 508 668 492 671 l 372 704 b 217 733 319 719 276 733 b 42 546 88 733 42 653 l 42 464 l 135 464 l 135 444 b 42 269 64 414 42 351 l 42 210 z m 550 403 b 460 424 526 403 494 414 l 336 460 b 269 471 317 465 289 471 b 222 465 253 471 238 469 l 222 475 b 271 522 222 500 233 522 b 322 514 285 522 301 519 l 442 478 b 557 456 492 463 522 456 b 588 461 571 456 581 458 l 588 450 b 550 403 588 417 574 403 z "},"≠":{"ha":742,"x_min":0,"x_max":0,"o":"m 700 197 l 700 411 l 447 411 l 500 519 l 701 519 l 701 733 l 604 733 l 660 847 l 496 931 l 400 733 l 42 733 l 42 519 l 296 519 l 243 411 l 42 411 l 42 197 l 138 197 l 82 82 l 246 0 l 342 197 z "},"≤":{"ha":743,"x_min":0,"x_max":0,"o":"m 701 -24 l 701 376 l 276 457 l 276 474 l 701 554 l 701 794 l 42 622 l 42 308 l 469 210 l 469 192 l 42 192 l 42 -24 z "},"≥":{"ha":742,"x_min":0,"x_max":0,"o":"m 700 -24 l 700 192 l 272 192 l 272 210 l 700 308 l 700 622 l 42 794 l 42 554 l 465 474 l 465 457 l 42 376 l 42 -24 z "},"$":{"ha":950,"x_min":0,"x_max":0,"o":"m 625 -139 l 625 -4 b 929 288 842 31 929 153 b 640 557 929 407 868 524 l 349 600 b 282 650 299 607 282 621 b 444 708 282 690 311 708 b 649 619 619 708 649 686 l 649 599 l 910 599 l 910 607 b 625 931 910 775 817 892 l 625 1069 l 382 1069 l 382 940 b 21 640 115 915 21 775 b 282 374 21 490 108 397 l 574 335 b 668 278 650 325 668 311 b 493 224 668 236 651 224 b 296 303 318 224 296 240 l 296 332 l 35 332 l 35 324 b 382 -8 35 119 164 17 l 382 -139 z "},"¢":{"ha":854,"x_min":0,"x_max":0,"o":"m 563 -139 l 563 0 b 826 296 726 36 826 146 l 826 319 l 567 319 l 567 307 b 429 221 567 235 514 221 b 288 350 333 221 288 242 b 429 481 288 460 333 481 b 567 393 514 481 567 465 l 567 382 l 826 382 l 826 404 b 563 701 826 556 726 664 l 563 833 l 319 833 l 319 703 b 28 350 139 667 28 540 b 319 -3 28 161 139 33 l 319 -139 z "},"£":{"ha":988,"x_min":0,"x_max":0,"o":"m 661 317 l 661 531 l 393 531 b 369 625 378 568 369 600 b 531 707 369 686 403 707 b 689 615 665 707 689 690 l 689 590 l 946 590 l 946 613 b 533 944 946 793 844 944 b 108 660 254 944 108 825 b 133 531 108 617 118 574 l 42 531 l 42 317 l 219 317 b 222 292 221 308 222 300 b 132 235 222 256 197 235 l 42 235 l 42 0 l 960 0 l 960 235 l 365 235 l 365 249 b 438 317 394 257 425 276 z "},"¥":{"ha":1121,"x_min":0,"x_max":0,"o":"m 690 0 l 690 150 l 1083 150 l 1083 364 l 735 364 l 779 429 l 1083 429 l 1083 643 l 924 643 l 1117 931 l 781 931 l 682 757 l 572 528 l 554 528 l 443 757 l 346 931 l 4 931 l 197 643 l 38 643 l 38 429 l 342 429 l 386 364 l 38 364 l 38 150 l 431 150 l 431 0 z "},"^":{"ha":732,"x_min":0,"x_max":0,"o":"m 285 389 l 357 694 l 375 694 l 447 389 l 690 389 l 521 931 l 213 931 l 42 389 z "},"¦":{"ha":379,"x_min":0,"x_max":0,"o":"m 310 521 l 310 1069 l 69 1069 l 69 521 z m 310 -139 l 310 410 l 69 410 l 69 -139 z "},"§":{"ha":814,"x_min":0,"x_max":0,"o":"m 425 -14 b 786 217 669 -14 786 93 b 649 381 786 322 710 367 l 649 394 b 786 519 735 400 786 450 b 643 644 786 597 733 633 l 360 681 b 285 717 296 689 285 694 b 381 753 285 739 296 753 b 500 700 486 753 500 740 l 500 686 l 761 686 l 761 692 b 389 951 761 850 618 951 b 28 721 144 951 28 844 b 165 557 28 615 104 571 l 165 543 b 28 424 79 538 28 490 b 207 290 28 349 81 307 l 454 257 b 529 221 518 249 529 243 b 433 185 529 199 518 185 b 314 238 328 185 314 197 l 314 251 l 53 251 l 53 246 b 425 -14 53 88 196 -14 z m 317 451 b 285 479 294 454 285 461 b 321 501 285 497 297 504 l 494 479 b 529 453 521 476 529 468 b 493 429 529 435 521 425 z "},"©":{"ha":1078,"x_min":0,"x_max":0,"o":"m 539 -12 b 1050 465 851 -12 1050 168 b 539 943 1050 761 851 943 b 28 465 226 943 28 761 b 539 -12 28 168 226 -12 z m 539 168 b 229 465 313 168 229 225 b 539 763 229 706 313 763 b 849 465 765 763 849 706 b 539 168 849 225 765 168 z m 543 214 b 807 436 700 214 807 299 l 807 447 l 622 447 l 622 439 b 543 382 622 403 603 382 b 456 465 472 382 456 401 b 543 549 456 529 472 549 b 622 492 603 549 622 531 l 622 483 l 807 483 l 807 494 b 543 717 807 632 700 717 b 271 465 368 717 271 619 b 543 214 271 313 368 214 z "},"®":{"ha":592,"x_min":0,"x_max":0,"o":"m 296 451 b 564 704 451 451 564 546 b 296 957 564 863 451 957 b 28 704 140 957 28 863 b 296 451 28 546 140 451 z m 296 553 b 138 704 168 553 138 593 b 296 856 138 815 168 856 b 454 704 424 856 454 815 b 296 553 454 593 424 553 z m 268 610 l 268 664 l 274 664 b 299 653 286 664 293 661 l 325 610 l 414 610 l 386 651 b 350 682 374 669 365 676 l 350 685 b 407 742 382 685 407 704 b 321 804 407 783 375 804 l 188 804 l 188 610 z m 268 738 l 317 738 b 329 726 325 738 329 735 b 317 715 329 719 325 715 l 268 715 z "},"°":{"ha":331,"x_min":0,"x_max":0,"o":"m 165 681 b 317 813 260 681 317 731 b 165 944 317 894 260 944 b 14 813 71 944 14 894 b 165 681 14 731 71 681 z m 165 776 b 119 813 131 776 119 785 b 165 849 119 840 131 849 b 211 813 200 849 211 840 b 165 776 211 785 200 776 z "},"¶":{"ha":1101,"x_min":0,"x_max":0,"o":"m 742 0 l 742 931 l 383 931 b 28 650 172 931 28 842 b 383 375 28 464 172 375 l 481 375 l 481 0 z m 1060 0 l 1060 931 l 799 931 l 799 0 z "},"™":{"ha":768,"x_min":0,"x_max":0,"o":"m 474 651 l 474 722 l 469 794 l 474 794 l 494 683 l 618 683 l 632 794 l 638 794 l 635 724 l 635 651 l 740 651 l 740 931 l 590 931 l 557 758 l 553 758 l 517 931 l 368 931 l 368 651 z m 243 651 l 243 822 l 340 822 l 340 931 l 28 931 l 28 822 l 125 822 l 125 651 z "}," ":{"ha":194,"x_min":0,"x_max":0,"o":""},"Ẽ":{"ha":900,"x_min":0,"x_max":0,"o":"m 342 989 l 342 1011 b 365 1036 342 1024 346 1036 b 417 1024 376 1036 393 1032 l 481 1003 b 607 976 521 989 564 976 b 740 1135 701 976 740 1043 l 740 1203 l 568 1203 l 568 1193 b 538 1158 568 1168 558 1158 b 482 1172 524 1158 506 1164 l 435 1189 b 313 1215 383 1207 343 1215 b 168 1058 189 1215 168 1131 l 168 989 z m 868 0 l 868 235 l 303 235 l 303 351 l 847 351 l 847 585 l 303 585 l 303 696 l 868 696 l 868 931 l 42 931 l 42 0 z "},"Ỹ":{"ha":1064,"x_min":0,"x_max":0,"o":"m 419 989 l 419 1011 b 443 1036 419 1024 424 1036 b 494 1024 454 1036 471 1032 l 558 1003 b 685 976 599 989 642 976 b 818 1135 779 976 818 1043 l 818 1203 l 646 1203 l 646 1193 b 615 1158 646 1168 636 1158 b 560 1172 601 1158 583 1164 l 513 1189 b 390 1215 461 1207 421 1215 b 246 1058 267 1215 246 1131 l 246 989 z m 658 0 l 658 294 l 1085 931 l 760 931 l 619 710 l 540 579 l 522 579 l 443 710 l 303 931 l -21 931 l 397 296 l 397 0 z "},"ẽ":{"ha":850,"x_min":0,"x_max":0,"o":"m 313 753 l 313 775 b 336 800 313 788 317 800 b 388 788 347 800 364 796 l 451 767 b 578 740 492 753 535 740 b 711 899 672 740 711 807 l 711 967 l 539 967 l 539 957 b 508 922 539 932 529 922 b 453 936 494 922 476 928 l 406 953 b 283 979 354 971 314 979 b 139 822 160 979 139 894 l 139 753 z m 432 -14 b 817 251 668 -14 817 96 l 817 268 l 556 268 l 556 253 b 422 193 556 211 528 193 b 269 301 311 193 274 217 l 818 301 b 822 368 821 326 822 344 b 426 714 822 593 668 714 b 28 350 193 714 28 578 b 432 -14 28 88 194 -14 z m 421 514 b 569 433 518 514 560 493 l 274 433 b 421 514 285 493 325 514 z "},"ỹ":{"ha":900,"x_min":0,"x_max":0,"o":"m 338 753 l 338 775 b 361 800 338 788 342 800 b 413 788 372 800 389 796 l 476 767 b 603 740 517 753 560 740 b 736 899 697 740 736 807 l 736 967 l 564 967 l 564 957 b 533 922 564 932 554 922 b 478 936 519 922 501 928 l 431 953 b 308 979 379 971 339 979 b 164 822 185 979 164 894 l 164 753 z m 196 -236 b 582 -28 400 -236 507 -193 l 914 700 l 622 700 l 518 428 l 472 264 l 454 264 l 404 425 l 283 700 l -14 700 l 321 8 b 272 0 310 3 293 0 l 69 0 l 69 -236 z "},"Ĉ":{"ha":1069,"x_min":0,"x_max":0,"o":"m 471 1014 l 526 1072 l 543 1072 l 597 1014 l 878 1014 l 692 1194 l 376 1194 l 192 1014 z m 542 -14 b 1042 383 854 -14 1042 135 l 1042 407 l 750 407 l 750 383 b 546 236 750 278 700 236 b 306 465 357 236 306 281 b 546 694 306 650 357 694 b 750 547 700 694 750 653 l 750 524 l 1042 524 l 1042 547 b 542 944 1042 796 854 944 b 28 465 218 944 28 756 b 542 -14 28 175 218 -14 z "},"Ĥ":{"ha":1039,"x_min":0,"x_max":0,"o":"m 456 1014 l 511 1072 l 528 1072 l 582 1014 l 863 1014 l 676 1194 l 361 1194 l 176 1014 z m 303 0 l 303 350 l 736 350 l 736 0 l 997 0 l 997 931 l 736 931 l 736 585 l 303 585 l 303 931 l 42 931 l 42 0 z "},"Ţ":{"ha":960,"x_min":0,"x_max":0,"o":"m 611 0 l 611 696 l 939 696 l 939 931 l 21 931 l 21 696 l 350 696 l 350 0 l 396 0 l 396 -182 l 551 -182 b 563 -192 560 -182 563 -185 b 551 -200 563 -197 560 -200 l 396 -200 l 396 -335 l 547 -335 b 708 -190 653 -335 708 -278 b 547 -50 708 -106 653 -50 l 528 -50 l 528 0 z "},"ĉ":{"ha":854,"x_min":0,"x_max":0,"o":"m 364 778 l 419 836 l 436 836 l 490 778 l 771 778 l 585 958 l 269 958 l 85 778 z m 435 -14 b 826 296 674 -14 826 110 l 826 319 l 567 319 l 567 307 b 429 221 567 235 514 221 b 288 350 333 221 288 242 b 429 481 288 460 333 481 b 567 393 514 481 567 465 l 567 382 l 826 382 l 826 404 b 435 714 826 592 674 714 b 28 350 186 714 28 578 b 435 -14 28 124 186 -14 z "},"ı":{"ha":388,"x_min":0,"x_max":0,"o":"m 324 0 l 324 694 l 64 694 l 64 0 z "},"ȷ":{"ha":344,"x_min":0,"x_max":0,"o":"m -11 -236 b 303 44 189 -236 303 -176 l 303 700 l 42 700 l 42 6 b -10 -44 42 -32 25 -44 l -36 -44 l -36 -236 z "},"ţ":{"ha":586,"x_min":0,"x_max":0,"o":"m 565 0 l 565 235 l 440 235 b 364 304 381 235 364 249 l 364 486 l 565 486 l 565 700 l 364 700 l 364 821 l 103 821 l 103 700 l 0 700 l 0 486 l 103 486 l 103 267 b 318 4 103 108 182 24 l 306 4 l 306 -182 l 461 -182 b 472 -192 469 -182 472 -185 b 461 -200 472 -197 469 -200 l 306 -200 l 306 -335 l 457 -335 b 618 -190 563 -335 618 -278 b 457 -50 618 -106 563 -50 l 438 -50 l 438 0 z "},"⁰":{"ha":586,"x_min":0,"x_max":0,"o":"m 293 451 b 558 697 457 451 558 542 b 293 944 558 853 457 944 b 28 697 129 944 28 853 b 293 451 28 542 129 451 z m 293 621 b 218 697 236 621 218 640 b 293 775 218 754 236 775 b 368 697 350 775 368 754 b 293 621 368 640 350 621 z "},"¹":{"ha":358,"x_min":0,"x_max":0,"o":"m 331 465 l 331 931 l 158 931 b 39 874 128 883 88 874 l 14 874 l 14 733 l 150 733 l 150 465 z "},"²":{"ha":542,"x_min":0,"x_max":0,"o":"m 499 472 l 499 625 l 432 625 l 211 597 b 210 608 211 599 210 607 l 354 639 b 514 782 465 661 514 701 b 286 944 514 879 438 944 b 28 758 108 944 28 857 l 28 738 l 207 738 l 207 751 b 274 790 207 783 222 790 b 332 769 325 790 332 785 b 303 744 332 756 325 751 l 157 700 b 36 547 85 678 36 636 l 36 472 z "},"³":{"ha":557,"x_min":0,"x_max":0,"o":"m 289 465 b 529 604 439 465 529 510 b 399 714 529 674 476 704 l 399 721 b 510 822 478 731 510 767 b 285 944 510 897 435 944 b 28 775 122 944 28 875 l 28 771 l 208 771 l 208 775 b 269 799 208 792 214 799 b 329 779 322 799 329 793 b 301 763 329 767 324 763 l 222 763 l 222 657 l 319 657 b 346 639 339 657 346 651 b 276 618 346 619 338 618 b 208 644 217 618 208 621 l 208 653 l 28 653 l 28 638 b 289 465 28 526 113 465 z "},"⁴":{"ha":547,"x_min":0,"x_max":0,"o":"m 457 465 l 457 553 l 533 553 l 533 713 l 457 713 l 457 931 l 242 931 l 14 696 l 14 553 l 276 553 l 276 465 z m 211 713 l 211 726 l 263 781 l 276 781 l 276 713 z "},"­":{"ha":833,"x_min":0,"x_max":0,"o":"m 626 301 l 626 524 l 42 524 l 42 301 z "},"«":{"ha":694,"x_min":0,"x_max":0,"o":"m 375 569 l 375 278 l 653 97 l 653 364 l 549 414 l 549 433 l 653 483 l 653 750 z m 42 569 l 42 278 l 319 97 l 319 364 l 215 414 l 215 433 l 319 483 l 319 750 z "},"»":{"ha":694,"x_min":0,"x_max":0,"o":"m 319 278 l 319 569 l 42 750 l 42 483 l 146 433 l 146 414 l 42 364 l 42 97 z m 653 278 l 653 569 l 375 750 l 375 483 l 479 433 l 479 414 l 375 364 l 375 97 z "}," ":{"ha":194,"x_min":0,"x_max":0,"o":""},"\r":{"ha":833,"x_min":0,"x_max":0,"o":""},"€":{"ha":936,"x_min":0,"x_max":0,"o":"m 746 283 l 746 442 l 401 442 b 401 465 401 449 401 457 b 401 486 401 472 401 479 l 746 486 l 746 644 l 436 644 b 622 696 469 689 528 696 l 894 696 l 894 931 l 622 931 b 150 644 385 931 214 828 l 14 644 l 14 486 l 121 486 b 121 465 121 479 121 472 b 121 442 121 457 121 450 l 14 442 l 14 283 l 150 283 b 622 0 215 101 386 0 l 894 0 l 894 235 l 622 235 b 439 283 531 235 472 242 z "},"₹":{"ha":844,"x_min":0,"x_max":0,"o":"m 804 0 l 582 206 b 400 315 519 263 478 300 l 400 333 b 638 501 551 335 618 401 l 817 501 l 817 694 l 644 694 l 644 738 l 817 738 l 817 931 l 42 931 l 42 738 l 383 738 l 383 694 l 42 694 l 42 501 l 379 501 b 282 458 369 468 344 458 l 42 458 l 42 243 l 107 243 b 253 183 164 243 201 231 l 447 0 z "},"̈":{"ha":625,"x_min":0,"x_max":0,"o":"m 600 778 l 600 971 l 353 971 l 353 778 z m 272 778 l 272 971 l 25 971 l 25 778 z "},"̇":{"ha":336,"x_min":0,"x_max":0,"o":"m 299 778 l 299 971 l 38 971 l 38 778 z "},"̀":{"ha":628,"x_min":0,"x_max":0,"o":"m 446 778 l 261 958 l -117 958 l 164 778 z "},"́":{"ha":628,"x_min":0,"x_max":0,"o":"m 461 778 l 742 958 l 364 958 l 178 778 z "},"̋":{"ha":931,"x_min":0,"x_max":0,"o":"m 763 778 l 951 958 l 610 958 l 499 778 z m 357 778 l 546 958 l 203 958 l 93 778 z "},"̂":{"ha":742,"x_min":0,"x_max":0,"o":"m 307 778 l 363 836 l 379 836 l 433 778 l 714 778 l 528 958 l 213 958 l 28 778 z "},"̌":{"ha":742,"x_min":0,"x_max":0,"o":"m 528 778 l 714 958 l 424 958 l 379 900 l 363 900 l 318 958 l 28 958 l 213 778 z "},"̆":{"ha":575,"x_min":0,"x_max":0,"o":"m 288 764 b 532 958 433 764 532 846 l 532 964 l 350 964 l 350 963 b 288 915 350 926 343 915 b 225 963 233 915 225 926 l 225 964 l 43 964 l 43 958 b 288 764 43 846 142 764 z "},"̊":{"ha":372,"x_min":0,"x_max":0,"o":"m 186 756 b 333 878 274 756 333 804 b 186 1000 333 951 274 1000 b 39 878 99 1000 39 951 b 186 756 39 804 99 756 z m 186 854 b 146 878 151 854 146 863 b 186 901 146 893 151 901 b 226 878 221 901 226 893 b 186 854 226 863 221 854 z "},"̃":{"ha":701,"x_min":0,"x_max":0,"o":"m 244 753 l 244 775 b 268 800 244 788 249 800 b 319 788 279 800 296 796 l 383 767 b 510 740 424 753 467 740 b 643 899 604 740 643 807 l 643 967 l 471 967 l 471 957 b 440 922 471 932 461 922 b 385 936 426 922 408 928 l 338 953 b 215 979 286 971 246 979 b 71 822 92 979 71 894 l 71 753 z "},"̄":{"ha":660,"x_min":0,"x_max":0,"o":"m 576 775 l 576 961 l 83 961 l 83 775 z "},"̒":{"ha":915,"x_min":0,"x_max":0,"o":"m 481 958 l 275 778 l 615 778 l 746 958 z "},"̦":{"ha":576,"x_min":0,"x_max":0,"o":"m 325 -278 l 531 -97 l 190 -97 l 60 -278 z "},"̧":{"ha":461,"x_min":0,"x_max":0,"o":"m 326 -335 b 488 -190 432 -335 488 -278 b 326 -50 488 -106 432 -50 l 307 -50 l 307 4 l 175 4 l 175 -182 l 331 -182 b 342 -192 339 -182 342 -185 b 331 -200 342 -197 339 -200 l 175 -200 l 175 -335 z "},"̨":{"ha":363,"x_min":0,"x_max":0,"o":"m 332 -260 l 332 -107 l 257 -107 b 246 -99 249 -107 246 -104 b 257 -78 246 -93 250 -86 l 319 0 l 151 0 l 119 -33 b 50 -161 83 -72 50 -110 b 193 -260 50 -219 88 -260 z "},"̵":{"ha":993,"x_min":0,"x_max":0,"o":"m 751 658 l 751 853 l 242 853 l 242 658 z "},"̷":{"ha":586,"x_min":0,"x_max":0,"o":"m 586 563 l 515 708 l 0 481 l 71 335 z "},"̸":{"ha":846,"x_min":0,"x_max":0,"o":"m 846 628 l 754 729 l 0 72 l 92 -29 z "}}}
